<?xml version="1.0" encoding="UTF-8"?>
<svg id="_Слой_1" data-name="Слой 1" xmlns="http://www.w3.org/2000/svg" viewBox="0 0 150 150">
  <path d="M130.05,103.93l-32.07,20.11c-1.18.45-1.74.17-2.86-.23-1.7-.6-4.03-1.59-5.66-2.39-.93-.45-1.41-.53-1.52-1.7-.22-2.26-.19-5.1,1.7-6.66l15.11-9.84.04-1.05-15.66-5.8c.65,8.84-2.13,16.92-7.76,23.63-2.31,2.76-7.31,7.21-10.63,8.55-1.27.51-1.66.09-2.83-.35-4.36-1.64-8.85-3.74-13.17-5.56-12.29-5.19-24.57-10.43-36.81-15.72-.55-.67-.65-1.41-.29-2.2.47-1.03,4.01-2.85,5.16-3.62.97-.66,1.95-1.36,2.82-2.16.07-.29-.11-.21-.29-.28-1.22-.53-3.12-1.03-4.2-1.66-.25-.15-.56-.38-.67-.65-.2-.5-.19-3.6-.11-4.28.2-1.83,1.37-2.74,2.79-3.65,3.12-1.98,6.65-3.6,9.79-5.58l.29-.44v-17.7c.18-2.2.88-4.26,1.47-6.37-3.73-1.2-7.29-1.91-8.95-5.9-1.14-2.74-.96-5.43-.13-8.23,1.2-3.99,3.03-8.94,4.58-12.84,2.85-7.16,11.01-8.68,16.79-12.92,1.86-.87,3.87-1.25,5.92-.93,24.48,7.64,48.86,15.72,73.11,24.06,2.83,1.52,4.6,4.08,4.83,7.32.34,4.82.06,10.79-.15,15.65-.08,1.76.25,2.98-.6,4.66-1.22,2.42-6.64,4.69-9.03,6.33-.22.15-.64.34-.72.6l.04,16.15c.22.33,6.46,2.36,7.43,2.81,2.92,1.38,3.14,4.9,2.73,7.78-.06.39-.25.75-.48,1.06ZM33.95,53.71v-5.12c0-.84.7-2.67.98-3.55,1.21-3.74,2.67-8.04,4.13-11.67,1.01-2.5,1.88-3.86,4.2-5.31,3.41-2.14,7.33-3.77,10.73-5.95-1.5-.71-3.21-1.21-4.78-.39-3.92,2.54-8.75,4.58-12.53,7.22-1.3.91-1.92,1.71-2.55,3.16-1.55,3.54-3.24,8.53-4.43,12.26-.61,1.93-1.2,3.72-.63,5.76.71,2.55,2.41,2.86,4.58,3.77l.3-.16ZM116.34,42.66l-.36-.3-56.97-18.99-.46.05-9.96,5.71,57.16,19.24c.44.06.8-.23,1.18-.41,3.18-1.54,6.21-3.76,9.41-5.29ZM102.88,51.44l-57.94-19.69c-1.66-.14-3.03,5.73-3.66,6.9l58.19,20.08.31-.22c.92-2.4,1.66-4.92,3.1-7.07ZM126.29,47.34c-.85-1.99-3.16-2.79-5.16-3.05-4.1,2.52-8.7,4.61-12.74,7.18-1.82,1.16-2.68,2.24-3.54,4.22-2.24,5.15-4.13,11.1-5.78,16.46l.02,4.15,6.12,2.22.16-5.03c1.86-5.15,3.46-10.88,5.62-15.89s5.92-6.54,10.36-8.81c1.46-.74,3.27-1.87,4.93-1.44ZM66.86,57.16l-19.25-6.74c-1.01-.1-3.41,1.64-4.22,2.34-2.98,2.58-6,7.84-6.35,11.8-.59,6.69.42,14.15-.01,20.91-.54,8.41-7.03,15.45-13.91,19.6l46.32,19.67c6.71-3.6,12.34-10.1,14.63-17.41,3.63-11.58-2.34-23.04,6.01-33.79,1.85-2.39,3.62-3.29,5.69-5.14.18-.16.42-.3.37-.58l-13.21-4.52-2.92,2.21c-.25,1.05.04,2.02-.3,3.07-.39,1.22-2.17,2.82-2.41,3.73-.16.6.13,1.59-.11,2.09-.43.89-3,1.02-3.51,0-.25-.51-.14-1.3-.34-1.86-.47-1.27-2.43-3.33-2.74-4.57-.15-.59-.14-3.02-.28-3.23-1.19-.62-2.98-.79-3.38-2.33-.22-.85.09-5.06-.08-5.26ZM70.68,60.81l5.38,2.02c.48.08,2.89-1.26,3.04-1.72.13-.39.13-4.91,0-5.13l-8.42-2.92v7.76ZM74.05,66.08c.11.46.67,2.22,1.22,2.17.52-.05,1.08-.99.76-1.45l-1.98-.72ZM95.27,78.66v-4.83c-1.23,1.03-2.34,2.28-3.08,3.73l3.08,1.1ZM112.68,81c-.16-.17-3.98,2.01-4.07,2.3-.22,6.52.19,13.07-.02,19.59,0,.23-.05.44-.15.64l4.02,1.62.22-24.15ZM104.78,89.2l-15.15-5.41c-.41.03-.67,4.29-.44,4.83l15.59,5.85v-5.27ZM32.93,87.3l-8.18,4.62c-.73.48-.83,1.29-.73,2.1l2.82,1.01c.99-.78,2.81-1.35,3.68-2.17,1.22-1.14,1.95-3.98,2.41-5.56ZM120.29,96.37v4.98l5.12-3-5.12-1.98ZM109.46,107.93c-.82-.04-2.64-1.32-3.32-1.06l-13.44,8.67c-.69.56-1.28,1.59-1.03,2.49l3.15,1.31c-.07-1.13.54-2.22,1.39-2.92l13.24-8.49Z"/>
  <path d="M43.13,64.94c.36-.07.7-.06,1.04.07l19.27,7.36c.94.46,1.3.9,1.39,1.97-.37,7.96,1.13,15.97-1.76,23.57-.61,1.6-1.09,3.09-3.22,2.63-5.7-2.6-12.23-4.2-17.85-6.88-.72-.34-1.32-.56-1.46-1.47s.55-3.02.7-4.11c.96-6.83-.07-14.42.31-21.35.07-.76.84-1.64,1.57-1.79ZM61,75.61l-15.63-6.02c-.18,7.02.51,14.14-.73,21.07l14.93,5.65c.73-2.06,1.32-4.26,1.46-6.45.28-4.64-.19-9.57-.02-14.24Z"/>
  <path d="M71.67,86.16c8.48-1.15,13.76,13.33,6.37,17.49s-15.35-8.7-9.99-15.26c.87-1.06,2.23-2.05,3.62-2.23ZM72.11,90.11c-.42.09-.85.46-1.13.78-2.73,3.16.7,11.15,5.05,9.29,3.91-1.67,1.06-11.08-3.92-10.07Z"/>
  <path d="M63.03,112.42c-.26.21-.7.23-1.02.16-2.65-1.42-6.41-2.18-8.93-3.66-1.31-.77.16-2.84,1.12-2.74l9.27,3.77c1.01.28-.04,2.15-.44,2.48Z"/>
  <path d="M44.53,102.41c.1-.08.23-.15.35-.16.9-.08,4.44,1.96,5.54,2.31.82.41-.61,2.44-1.03,2.5-.87.12-4.56-1.92-5.64-2.26-.69-.27.5-2.14.78-2.38Z"/>
  <path d="M66.98,111.76c.19-.06.33-.03.52,0,.42.08,3.71,1.43,4.06,1.66,1.23.85-.29,2.73-1.49,2.53-.33-.06-4.06-1.63-4.21-1.8-.49-.54.62-2.24,1.13-2.39Z"/>
  <path d="M37.72,99.32c.5-.09,3.73,1.2,3.92,1.58.27.55-.87,2.49-1.69,2.28-.29-.07-2.99-1.27-3.14-1.41-.91-.86-.21-2.24.9-2.45Z"/>
  <path d="M68.45,74.45c.46-.14,3.33.75,3.69,1.07.71.62-.31,2.24-1.21,2.22-.48-.01-2.85-.73-3.18-1.04-.56-.53.12-2.08.7-2.25Z"/>
  <path d="M81.77,73.86c1-.2,1.78,1.25,1.13,2.02-.11.13-2.43,1.39-2.66,1.44-1.21.25-2.12-.84-1.36-1.8.24-.3,2.5-1.57,2.89-1.65Z"/>
  <path d="M74.59,79.44c.41.45.3,1,.07,1.52-.13.3-1.49,1.92-1.73,2.08-.7.46-2.24-.67-1.85-1.56.09-.2,1.86-2.3,2-2.39.48-.28,1.17-.02,1.5.34Z"/>
  <path d="M78.22,78.87c.6,0,2.47,2.16,2.64,2.71.27.87-1.11,1.8-1.92,1.33-.25-.15-1.67-2.18-1.76-2.49-.17-.61.33-1.55,1.03-1.55Z"/>
  <path d="M103.58,41.82c.93-.08,3.71.73,4.16,1.61.82,1.65-1.34,2.75-2.74,2.75-.81,0-3.31-.72-3.71-1.42-.92-1.6.88-2.82,2.29-2.94Z"/>
  <path d="M95.38,39.48c1.34-.23,4.95.74,3.97,2.65-1.11,2.16-6.46.78-5.77-1.38.19-.6,1.21-1.17,1.8-1.28Z"/>
</svg>