<?xml version="1.0" encoding="UTF-8"?>
<svg id="_Слой_1" data-name="Слой 1" xmlns="http://www.w3.org/2000/svg" viewBox="0 0 150 150">
  <path d="M23.32,105.42c.64-.63,2.65-1.26,3.56-1.78,1.45-.82,2.94-2.04,3.82-3.47-.01-.15-.37-.38-.5-.49-3.46-2.85-8.27-5.14-11.6-8.01-1.26-1.09-.75-1.41-.74-2.76.03-2.37-.28-5.53,0-7.77.09-.71.57-1.25,1.13-1.65l17.36-10.6c.59-.23,1.87.78,2.94.62,1.31-.2,2.42-3.07,3.03-4.14,6.84-4.79,14.28-8.81,21.3-13.39.53-.32,1.02-.56,1.66-.47l-.02-1.15-5.83-3.46c-.46-.58-.55-1.27-.37-1.99,1.73-3.06,2.73-7.28,4.98-9.94.81-.96,3.5-3.26,3.94-4.11.33-.64.46-2.17.79-3.02.61-1.6,3.69-7.83,4.71-8.9,1.48-1.57,3.85-2.16,5.89-1.49,11.79,7.16,23.93,13.94,35.57,21.35,1.83,1.17,2.76,2.61,2.59,4.87-.19,2.54-4.1,8.25-5.23,11.01-1.03,2.51-.85,5.38-1.92,7.87,6.27,4.07,12.87,7.65,19.14,11.72,1.1.71,2.33,1.14,2.5,2.62.22,1.93.22,7.01,0,8.93-.1.84-.51,1.15-1.12,1.66l-57.51,40.25c-.91.42-1.37.38-2.25-.04l-6.8-4.58c-1.54,1.43-3.02,3.12-4.14,4.9-.85,1.34-1.4,3.79-3.43,3.38-.92-.19-2.78-2.63-3.62-3.41-4.34-3.99-9.74-4.87-14.2-8.63-3.75-3.17-6.1-6.05-10.58-8.59-1.28-.73-3.97-1.72-4.92-2.54-.78-.67-.83-2.08-.1-2.8ZM72.15,29.56l32.74,19.88c.4.11.61-.45.8-.76,1.58-2.64,2.24-5.97,4.66-8.07-9.05-5.34-17.91-10.99-26.94-16.38-1.07-.64-4.14-2.72-5.1-2.95-1.13-.27-1.89.07-2.56.97l-3.59,7.31ZM67.03,37.61l31.9,19.41c.34.1.91-.61,1.18-.89.96-1.01,1.76-2.25,2.77-3.22l-31.6-19.48h-.44s-3.8,4.18-3.8,4.18ZM95.41,64.54l1.7-3.94-.08-.22-32.05-19.54-1.59,4.08,32.03,19.63ZM98.78,66l5.48.3c.8-1.83,2.23-3.64,2.81-5.54.46-1.49.51-3.08.82-4.6.89-4.41,3.71-7.64,5.33-11.64.21-.53.4-1.06.33-1.64-2.66,2.21-3.56,5.95-5.19,8.93-1.78,3.26-4.76,5.84-7.08,8.73l-2.51,5.46ZM68.78,53.05c.1,1.99,0,4.14,0,6.15,0,2.65,3.59,5.44,5.57,6.72,3.35,2.16,7.44,4.75,10.92,6.64,4.48,2.43,10.46,2.18,13.07-2.68-.98-.24-2.01-.18-2.88-.78l-26.61-16.41c-.46-.06-.07.29-.07.36ZM65.12,59.27v-3.66l-42,26.05,49.31,33.6,54.3-38.06-18.15-11.05-1.4,2.78,13.15,7.92c.65.51.73,1.49.31,2.17-15.52,10.9-31.28,21.54-46.7,32.61-.47.33-1,.4-1.55.29l-43.2-28.8c-.45-.69-.32-1.76.4-2.23l35.53-21.62ZM66.28,63.08l-31.6,19.31,3.08,1.84,30.13-18.31c.24-.19.11-.13,0-.29-.54-.81-1.36-1.56-1.62-2.55ZM108.73,82.54l-10.9-6.69c-4.38,3.1-10.28,2.56-14.75-.07l-12.02-7.29-29.64,18.22,31.51,20.82,35.81-24.99ZM115.17,78.29l-12.95-7.9-1.52,2.72,11.5,7.2,2.97-2.02ZM128.49,84.51v-4.02l-54.15,38.12v3.66c0,.06-.38.26.07.22l54.08-37.97ZM70.68,122.78v-4.17l-49.17-33.73v4.32c16.5,11.04,32.68,22.54,49.17,33.59ZM56.78,126.29c1.06-2.03,2.74-3.65,4.24-5.34l-26.92-18.6c-.17-.09-.24-.03-.37.08-.4.32-1.09,1.42-1.52,1.85-.97.97-2.24,1.85-3.37,2.63,2.9,1.43,5.61,3.3,8.05,5.41,1.87,1.62,3.5,3.57,5.51,5.03,2.55,1.85,5.45,2.62,8.14,4.15,2.29,1.3,4.33,3.01,6.25,4.8Z"/>
  <path d="M41.27,58.39c.68-.03,2.53-1.82,3-.88l.04.77c-1.42,2.51-2.61,5.16-4.04,7.67-.27.47-.81,1.72-1.38,1.64-.27-.04-4.05-2.63-4.49-2.99-1.98-1.65,1.27-2.62,2.33-3.53l.03-19.99c.04-.16.16-.22.27-.32.26-.22,2.97-1.89,3.18-1.95.31-.08,1.06,0,1.06.33v19.24Z"/>
  <path d="M51.51,47.12c.92-.19,3.61-2.77,3.35-.53-.1.91-2.4,5.13-2.99,6.24-.37.7-1.58,3.21-2.07,3.49-.53.29-.88.03-1.36-.21-.7-.36-3.8-2.47-4.32-2.99-1.53-1.5,2.54-2.41,2.71-3.29l.1-14.97,3.52-2.19h.67c.13.04.39.4.39.48v13.98Z"/>
  <path d="M112.34,111.76c-.89.92-3.17.51-4.49.85-3.84.99-5.7,4.52-8.56,6.8-1.64,1.3-3.76,2.55-5.68,3.4-.87.38-2.83,1.26-3.7,1.28-1.33.02-2.23-1.04-1.93-2.37s4.19-2.3,5.44-2.9c5-2.42,7.36-7.33,12.33-9.47,1.74-.75,4.19-1.32,5.99-.47,1.13.54,1.51,1.94.6,2.88Z"/>
  <path d="M70.64,73.2c.28-.06.55-.06.84-.02l17.78,10.61c.99.92.89,2.22-.24,2.97-4.92,3.02-9.59,6.51-14.55,9.45-1.7,1.01-2.72,2-4.77.99-5.02-3.79-11.52-6.58-16.48-10.3-1.36-1.02-1.32-2.29.09-3.23l17.33-10.47ZM84,85.17l-12.94-7.62-12.96,7.83,13.25,8.12,12.66-8.33Z"/>
</svg>