<?xml version="1.0" encoding="UTF-8"?>
<svg id="_Слой_1" data-name="Слой 1" xmlns="http://www.w3.org/2000/svg" viewBox="0 0 150 150">
  <path d="M122.9,15.56c1.16-.08,2.06-.14,3.11.46,2.13,1.22,1.53,3.22,1.6,5.28.03.89.14,1.89.16,2.77.04,2.05-.33,5.66,0,7.46.08.42,1.04,1.71,1.28,2.38,1.1,3.09.39,6.24-1.29,8.89.06,15.61-.14,31.25.15,46.83,3.21,3.36,3.29,8.68,0,12.01-.29,3.84.37,8.22,0,12s-6.68,4.54-8.78,1.9-.53-9.68-1.06-12.99l-1.28-1.64c-8.02.91-15.75,3.28-23.57,5.12-8.52,2.01-17.11,3.58-25.83,4.46-7.68.77-15.47.84-23.08,2.24-1.5.28-4.53.77-5.83,1.34-.66.29-.78,1.46-1.1,2.12-.74,1.53-2.21,2.96-3.72,3.74-.48.25-2.55.82-2.62,1.04l-.02,9.05c-.2,1.26-1.04,2.42-2.26,2.86s-3.77.49-5.05.06c-1.62-.55-2.71-2.11-2.79-3.8V54.8c-2.11-3.44-2.1-7.35,0-10.83.4-5.2-.5-11.12.01-16.23.11-1.09.79-2.25,1.76-2.77.87-.47,4-.81,5.04-.78,1.98.05,3.37,1.61,3.45,3.55l.02,12.42c.07.2,2.62,1.3,3.09,1.59,1.67,1.01,2.84,2.25,3.86,3.9l11.84-.26c20.95-1.47,42.25-3.36,62.32-9.68.23-.17.57-1.54.79-1.99,1.01-2.07,3.07-3.51,4.98-4.68l.02-10.08c.29-2.68,2.49-3.24,4.8-3.39ZM122.2,34.68c1.3-.5,1.65-2.04,1.75-3.29.28-3.43-.21-7.21,0-10.68-.08-1.32-1.83-1.33-1.91,0l.15,13.98ZM27.37,47.12v-17.63s-.31-.59-.4-.66c-.81-.73-2.01-.05-2.07.97l.06,15.86c.12.35,2.29,1.6,2.41,1.47ZM118.24,37.1c.17-.94-.12-2.3,0-3.29-1.64,1.2-2.46,2.87-1.92,4.92.05.2-.09.41.24.34.44-.55,1.56-1.29,1.68-1.97ZM125.85,36.59l-6.14,5.05c0,.32,1.53.24,1.81.2,2.4-.28,4.65-2.78,4.33-5.25ZM112.66,39.82c-.23-.15-4.03,1.19-4.67,1.37-18.88,5.31-43.22,7.86-62.85,8.42-2.08.06-4.16-.11-6.24.06l-.36,2.87c.22.36,3.73,1.81,4.39,2.34,1.01.81,1.1,2.46.07,3.29-1.86,1.48-4.75-1.47-6.58-1.97.14.56.24,1.25.29,1.83.96,10.45,1.23,20.97.87,31.46-.06,1.71-.05,3.42-.14,5.13l-.88,10.32c1.06-.86,1.92-1.94,2.92-2.86.4-.37,1.68-1.6,2.05-1.76,1.87-.79,3.57,1.32,2.34,3.08-1.31,1.87-4.26,3.65-5.72,5.55l-.14,1.11c9.09-2.44,18.56-2.54,27.88-3.51,7.15-.75,14.27-1.83,21.3-3.29,9.61-1.99,19.04-4.93,28.82-6.08l-.14-2.28-4.62-2.84c-1.67-1.64-.02-4.25,2.23-3.4l4.28,2.66.74-1.25c-.58-6.08-.61-12.19-.72-18.29,0-.35-.15-.67-.16-1.01v-25.29s-1.17-.78-1.17-.78c-1.19.72-3.14,3.42-4.37,3.68-1.84.39-3.2-1.41-2.18-3.06l3.76-3.56-1.02-1.94ZM31.17,44.93v3.95l3.29,1.75c.86-2.36-.93-5.18-3.29-5.71ZM123.95,45.51l-2.06.52.3,42.65,1.9-.15-.15-43.02ZM31.9,54.29l-8.05-4.39c.08,2.42,1.8,4.34,4.12,4.88,1.53.36,2.49-.02,3.93-.49ZM24.88,106.24c.56-.55,2.25-1.21,2.35-1.97.04-11.46-.14-23.03.15-34.39-.32-3.25.4-7.24,0-10.4-.02-.16.01-.33-.15-.43l-2.34-.66v47.85ZM31.02,58.83v45.22l1.76.15c-.03-.28.09-.55.13-.82.95-7.34.95-15.56.89-22.95-.06-6.74-.06-13.97-.87-20.64-.04-.37-.19-.72-.15-1.1l-1.76.15ZM126.44,96.73c.45-2.57-1.88-5.42-4.49-3.83-.23.14-.96.65-.44.8,1.45.72,3.02,2.23,4.42,2.9.18.08.3.19.52.14ZM123.66,100.39c.07-.3-.16-.33-.33-.47-.72-.57-1.97-1.45-2.75-1.93-.18-.11-.32-.28-.57-.23.2,1.79,1.93,2.85,3.66,2.63ZM124.1,104.05c-.74.15-1.31.15-2.05,0v8.41c0,1.02,2.05,1.5,2.05,0v-8.41ZM32.34,108.29c-2.19-.58-4.57.24-5.89,2.09-.77,1.08-1.41,2.64-.84,3.91l6.73-6ZM30.88,116.78c1.93-.33,3.43-2.3,3.36-4.24-.61.55-3.24,2.54-3.36,3.15-.06.33.03.75,0,1.09ZM24.88,119.27v9.29c0,.94,2.01,1.61,2.31.26v-8.66s-2.31-.89-2.31-.89Z"/>
  <path d="M105.78,49.51c1.32-.25,2.54.77,2.66,2.08v36.01c-.1,1.15-.63,1.73-1.69,2.11-3.11,1.09-7.82,1.89-11.16,2.6-11.8,2.5-23.79,4.3-35.81,5.46-3.22.31-7.07.82-10.24.89-1.3.03-2.18-.31-2.72-1.54-.33-12.56-.04-25.19-.15-37.77.35-2.47,2.53-1.97,4.32-2.12,18.4-1.54,36.72-3.94,54.78-7.71ZM104.49,54.15c-17.61,3.35-35.41,6.03-53.34,7.17l-.44.29.07,32.64c18.11-1.26,36.1-3.91,53.71-8.2v-31.9Z"/>
</svg>