<?xml version="1.0" encoding="UTF-8"?>
<svg id="_Слой_1" data-name="Слой 1" xmlns="http://www.w3.org/2000/svg" viewBox="0 0 150 150">
  <path d="M29.27,85.54s.15-.14.13-.27l-.12-.16c-2.55-1.69-5.38-3.13-7.89-4.85-2.63-1.79-4.34-3.82-4.56-7.15-.61-9.37.47-19.4,0-28.83.69-5.03,3.34-7.46,7.93-9.04,19.97-6.86,40.93-11.91,60.99-18.62,4.33-1.15,6.63-1.05,10.78.63,5.59,2.26,11.47,5.08,16.98,7.61,3.91,1.8,7.92,2.8,10.07,6.75,1.82,3.34,4.33,8.36,5.7,11.86.34.87.57,1.77.67,2.7-.37,5.55.57,11.49.15,16.99-.4,5.17-4.97,6.18-9.08,7.53.27.64.43,1.33.54,2.02,1,6.28-.17,13.26.33,19.57.23,2.85,2.52,5.62,4.7,7.3,1.98,1.53,5.63,2.45,3.43,5.65-14.77,6.98-29.97,13.12-45,19.54-1.49.28-2.2-.26-3.3-1.11-3.7-2.87-6.64-6.31-8.02-10.86-1.51-4.98-.85-10.21-1.2-15.33l-26.71,10.68,16.15,10.56c1.74,1.25,1.76,3.35,1.38,5.28-.19.98-.85,1.43-1.67,1.84-2.05,1.04-5.43,2.75-7.5,1.25l-33.47-22.21c-.28-.45-.74-.87-.87-1.4-.18-.78-.2-3.11.12-3.85.15-.35.48-.74.76-.99.62-.56,5.73-2.6,6.62-2.74s1.33.13,1.94.7c.07-3.68-.09-7.37,0-11.05ZM112.39,28.98l-19.28-8.46c-3.55-1.21-7.51.66-10.98,1.68-17.95,5.28-35.75,11.07-53.68,16.42l-.21.3,18.19,11.09c.31-.12.58-.31.9-.41,20.73-6.71,41.68-12.79,62.38-19.57.7-.23,1.67-.47,2.31-.77.15-.07.34-.09.36-.3ZM117.48,31.94l-69.14,21.89c-.88.55-1.2,1.23-1.03,2.26l4.73,12.83c.43.57,1,.99,1.73,1.03l71.5-23.91c.42-.35-.23-1.49-.41-1.93-1.64-3.82-3.73-7.47-5.41-11.27-.4-.73-1.18-.97-1.96-.89ZM48.44,91.32l-.16-20.55c-1.46-4.51-3.83-9.13-5.04-13.7-.36-1.36-.49-2.25-.14-3.66l-20.13-12.37c-1.08.94-1.77,2.23-1.91,3.66v27.82c.25,2.93,2.54,3.85,4.7,5.25,6.27,4.07,13.37,8.74,19.85,12.35.89.5,1.78,1.09,2.82,1.2ZM125.85,50.2l-10.08,3.38.02,9.25,3.44,3.89c1.61-.75,5.91-1.27,6.42-3.2.14-.55.19-2.3.22-3,.14-3.43-.11-6.89,0-10.32ZM124.54,103.32c-3.53-1.94-6.58-6.57-6.88-10.61-.51-6.87,1.55-17.53-2.22-23.39-1.46-2.28-3.99-4.5-6.13-6.16-1.54-1.19-3.48-2.98-5.55-2.51l-35.55,12.23c-.05.23.04.23.16.35.58.59,1.71,1.2,2.41,1.84,11.94,10.82.84,30.78,9.95,41.57,1.12,1.33,2.69,2.49,4.03,3.59l39.8-16.9ZM63.51,71.27l-10.83,3.51v15.95l10.91-4.24c.07-.1-.08-.19-.08-.22v-15ZM70.98,83.56c.41-.46-2.61-4.13-3.22-4.54l-.15,5.71,3.36-1.17ZM72.29,87.8c-3.48,1.28-6.88,2.85-10.35,4.21-3.86,1.51-9.66,4.21-13.72,3.84-.89-.08-1.74-.42-2.56-.73l-.08,8.2,26.86-10.47c.44-.37-.09-4.25-.15-5.05ZM33.66,87.95v19.1l7.61,4.9v-19.25s-.02-.19-.02-.19l-7.59-4.56ZM29.27,104.34v-2.56c-1.47-1.31-2.69-1.61-4.39-.44l4.39,3ZM45.51,112.83v2.41l10.4,7.03h.28s2.05-.96,2.05-.96l-12.73-8.49Z"/>
  <path d="M94.06,77.45c.62-.09,1-.04,1.28.55.33.69.56,3.52.66,4.47.31,2.99.97,8.31.25,11.08-1.43,5.48-11.7,9.78-12.83,1.51-.47-3.45-.93-8.09-1.03-11.55-.01-.41-.05-1.03.07-1.41.21-.64,2.87-1.61,3.49-1.43.5.15.64.91.69,1.36.3,2.76.32,5.57.59,8.34.1.99.25,3.54.73,4.25,1.48,2.15,4.7-.55,4.54-2.64-.18-3.81-.95-7.62-1.17-11.41-.04-.74-.2-1.86.48-2.3.3-.2,1.9-.76,2.27-.81Z"/>
  <path d="M97.06,76.43c.12-.12,2.59-1.01,2.85-1.03.35-.04.59.01.83.27.45.48,1.48,3.51,1.8,4.35.88,2.31,1.6,4.68,2.51,6.97l.45.09,1.53-13.91c.15-.46,2.17-1.19,2.68-1.27,1.17-.19,1.56.17,1.5,1.35-.12,2.76-1.02,6.79-1.49,9.64-.41,2.49-.74,5.31-1.34,7.73-.11.46-.24,1.29-.61,1.59-.2.16-3.27,1.3-3.53,1.31-.43.02-.75-.27-1-.59-1.64-4.97-4.36-9.84-6.04-14.74-.17-.48-.56-1.32-.14-1.76Z"/>
  <path d="M117.37,42.88l-1.03-2.49c-1.71.42-3.72,1.52-5.41,1.84-2.82.53-3.91-2.98-1.37-4.15,1.29-.59,5-1.92,6.33-2.16,1.02-.19,1.73.05,2.32.91.71,1.02,2.3,4.1,2.77,5.27.41,1.02.43,2.08-.6,2.71-.94.57-6.54,2.46-7.71,2.68-2.3.43-3.15-1.71-.92-2.68.76-.33,5.42-1.7,5.6-1.94Z"/>
  <path d="M103.43,40.13c1.1-.19,2.23.03,2.88,1,1.8,2.7-2.13,5.55-4.31,3.58-1.68-1.52-.64-4.22,1.43-4.58Z"/>
</svg>