<?xml version="1.0" encoding="UTF-8"?>
<svg id="_Слой_1" data-name="Слой 1" xmlns="http://www.w3.org/2000/svg" viewBox="0 0 150 150">
  <path d="M32.49,81.95c-2.87-1.72-5.8-3.4-8.62-5.21s-5.26-3.33-5.58-7.01c-.61-7,.46-14.86,0-21.95.38-3.33,2.36-6.05,5.26-7.62l63.69-23.09c2.05-.54,3.77-.66,5.85-.21,7.86,3.49,16.25,6.85,23.87,10.81,3.32,1.73,5.3,3.39,6.95,6.8,1.67,3.45,3.88,8.43,5.11,12.01.97,2.83,1.05,8.19.75,11.22-.66,6.57-8.6,6.75-13.25,9.14-.26.13-.6.19-.63.54v21.23s.17,2.31.17,2.31l9.24,5.68c1.75,1.28,2.16,3.57,1.52,5.57-.87,2.7-4.57,2.97-6.69,4.28,1.36,1.03,2.96,1.72,4.38,2.65,1.19.78,2.27,1.56,1.18,3.06-14.1,6.38-28.54,12.2-42.84,18.18-.32.07-.64.07-.96,0-.65-.13-2.89-1.56-3.55-2.01-5.96-4.02-8.95-9.88-9.29-17.05-.18-3.67.46-8.4,0-11.86-.03-.2.08-.25-.22-.21l-14.84,5.94.12,4.82,12.44,8.05c1.71,1.43,2.09,5.29.37,6.79-.79.69-5.07,2.26-6.29,2.64-1.85.58-2.91.62-4.66-.32l-32.38-20.6c-.51-.66-.44-3.27-.36-4.18.13-1.42.89-2.46,2.14-3.13.71-.38,4.49-1.94,5.14-2.03.76-.11,1.3.22,1.94.55v-15.8ZM113.41,30.14c.09-.12-.43-.37-.53-.42-6.57-3.33-13.45-6.12-20.07-9.35-1.56-.6-3.17-.35-4.72.11l20.34,11.21,4.98-1.55ZM36.73,39.22l19.68,11.54,47.93-17.62-20.24-11.02-47.37,17.09ZM117.81,62.34l6.79-2.5c1.31-.72,1.73-1.85,1.84-3.28.27-3.22.2-6.74-.95-9.72-1.31-3.38-3.01-7.22-4.58-10.49-.47-.98-1.11-2.49-1.94-3.18-1.36-1.13-2.28-.56-3.72-.09-1.24.4-3.45,1.08-4.54,1.6-.13.06-.29.08-.35.24l7.12,16.86c.6,3.48.24,7.05.34,10.57ZM112.83,49.17l-5.49-12.88-.42-.14-48.09,17.63,5.78,13.24,48.22-17.85ZM52.1,51.95s-.5-.16-.68-.27c-6.09-3.71-12.35-7.14-18.45-10.83-2.31.34-4.46,1.74-6.77,2.17l.24.41,18.92,11.08,6.53-2.26c.23.07.28-.22.2-.3ZM54.88,74.85v11.49l7.98-3.07.08-.36c-.29-4.1.58-8.57-.52-12.52l-6.68-15.49-8.17,2.76,6.61,14.97c.26.68.63,1.5.71,2.22ZM120.44,110.92c.06-.27-.09-.28-.24-.41-.71-.62-1.95-1.14-2.75-1.78-2.78-2.23-4.82-6.47-5.06-10.02-.69-10.31.53-21.37,0-31.76-.39-4.81-4.32-7.15-8.09-9.33l-.26-.04-36.28,13.54c-.08.1,1.85,1.47,2.05,1.68,1.94,1.92,2.77,4.94,2.93,7.61.62,10.71-.48,22.01,0,32.79.66,6.01,4.18,10.94,9.62,13.51l38.09-15.78ZM43.9,110.2v-21l-7.61-4.61v20.93l7.61,4.68ZM69.22,84.59l-15.22,5.93v10.46s15.05-5.88,15.05-5.88l.17-10.51ZM47.41,91.1v19.83l3.06-1.04.02-18.57c-1.01.06-2.01-.19-2.93-.59.04.15-.14.29-.15.37ZM116.05,99.07l3.74,2.2,3.57-1.54-.3-.43-7.01-4.18v3.95ZM64.54,120.73l-12.1-7.87-3.85,1.65,11.95,7.8,4-1.58Z"/>
  <path d="M104.75,62.38c2.48-.32,3.37,2.84,3.53,4.74.44,5.27-.3,11.06.03,16.38.01,1.44-1.78,1.77-2.9,2.22-9.22,3.76-18.61,7.22-27.93,10.71-.73.02-1.48-.65-1.53-1.38-.23-5.39.31-11.04,0-16.4-.07-1.21-.62-2.93-.6-3.95.02-1.43,1.38-1.79,2.46-2.23,8.86-3.62,18-6.64,26.93-10.1ZM104.01,66.17l-25.07,9.63.3,16.25,25.47-9.8.07-14.43-.54-1.67c-.08-.03-.16,0-.24.01Z"/>
  <path d="M106.94,90.62c1.96-.51,2.65,1.45,1.5,2.96-1.59,2.08-4.65,3.55-7.23,3.74-4.33.32-5.61-.43-9.37,2.49-4.63,3.6-7.49,8.09-14.35,7.31-2.02-.23-2.1-3.16-.15-3.37.5-.05.96.14,1.32.12,7.16-.4,9.09-6.76,15.07-9.05,3.66-1.4,7.98.19,11.04-2.13.58-.44,1.68-1.95,2.17-2.07Z"/>
  <path d="M76.44,112.58c.61-.57,2.55-.11,3.52-.21,5.96-.63,9.52-8.86,16.56-9.49,3.23-.29,5.69.72,8.55-1.55,1-.79,1.57-2.45,3.05-1.85,1.12.46,1,1.7.45,2.57-1.11,1.76-3.5,3.24-5.5,3.71-2.19.51-4.37-.05-6.63.4-6.3,1.26-9.05,8.82-16.02,9.44-.66.06-2.9.1-3.44-.06-1.03-.32-1.27-2.28-.53-2.96Z"/>
  <path d="M104.89,41.3c.69-.17,1.19.16,1.52.74.44.75,1.5,3.35.92,4.05-1.11,1.32-2.14-.62-2.85-.52-1.33.19-3.14,1.33-4.54,1.62-.35.29.2,1.43-.84,1.94-.54.27-1.19.22-1.64-.19s-1.55-3.34-1.46-3.93c.09-.63.48-.7.98-.93,2.44-1.09,5.4-1.76,7.91-2.78Z"/>
  <path d="M121.71,47.22c-2.09,2.08-5.29-1.12-3.4-3.18,2.12-2.31,5.6.98,3.4,3.18Z"/>
  <path d="M115.52,37.81c.96-1.02,2.96-.83,3.64.43.86,1.61-.15,3.48-2,3.48s-2.98-2.48-1.63-3.91Z"/>
</svg>