<?xml version="1.0" encoding="UTF-8"?>
<svg id="_Слой_1" data-name="Слой 1" xmlns="http://www.w3.org/2000/svg" viewBox="0 0 150 150">
  <path d="M107.29,87.24v2.44s10.08,4.78,10.08,4.78c.53.25,1.1.98,1.24,1.54.21.82.18,4.82.07,5.79s-.69,1.5-1.41,2.1c-8.69,5.1-17.48,10.01-26.2,15.07-3.94,2.29-8.1,5.18-12.1,7.22-2.74,1.4-3.91,1.04-6.54-.24l-48.21-25.1c-.62-.51-1.13-1.32-1.24-2.13-.14-1.05-.15-5.41.09-6.33.49-1.91,3.99-2.7,5.31-3.98l-10.87-5.3c-1.27-.61-1.36-2.29-.15-3.02l17.32-9.54c.07-.38-.06-.23-.21-.3-2.06-1.09-3.53-2.37-3.75-4.88-.5-5.83.76-10.58,2.6-16,.88-2.58,1.93-4.59,4.24-6.15,1.8-1.22,9.99-5.39,11.89-5.81s3.27-.04,4.98.59l24.52,10.59c3.31-1.55,6.46-3.41,9.73-5.04,4.64-2.31,5.58-2.89,10.64-.83,11.06,4.5,21.8,9.92,32.88,14.38.97.52,1.83,1.47,2.15,2.54.51,1.69.49,7.73-.19,9.34-.34.82-1,1.47-1.77,1.89l-18.1,9.71c-.22.72-.14,1.33-.41,2.08-.88,2.48-4.5,3.34-6.59,4.61ZM104.19,63.08l-52.38-22.47-2.1.11-6.4,3.26,53.22,23.31,7.66-4.22ZM131.1,60.32l-34.47-15.06c-1.1-.38-2.27-.75-3.4-.25l-10.25,5.19c-.12.15,1.48.82,1.66.9,7.57,3.39,15.77,6.31,23.17,9.9,3.64,1.77,6.53,4.79,6.34,9.1l16.95-8.8v-.98ZM94.54,69.95l-54.87-23.94c-1.23.51-2.27,1.7-2.81,2.91-.89,2.01-2.29,6.81-2.71,9-.07.37-.32,1.66-.17,1.91l8.1,3.68c.14-.08.17-.22.23-.35.84-1.92,1.03-5.15,1.95-6.97.45-.89,1.19-1.19,2.17-.98l34.04,14.84c2.09,1.25,1.67,2.62,1.11,4.59-.66,2.33-1.97,4.7-1.61,7.17l9.37,4.53,5.19-16.39ZM41.12,66.73l-7.17-3.22c-.02.98-.12,2.07.58,2.86.35.4,3.57,2.04,3.99,1.95.15-.03,2.69-1.46,2.6-1.58ZM77.85,75.66l-25.95-11.53c-9.72,5.84-19.84,11.02-29.61,16.78-.14.08-.84.38-.63.61l31.83,16.2,23.02-13.5c-.35-1.31.08-2.61.04-3.92l1.3-4.63ZM131.27,64.98l-17.12,9.15v2.71l17.12-9.29v-2.56ZM92.93,91.46l.64-.16,16.29-9.03c.59-.36,1.07-.98,1.08-1.7-.53-3.67,1.15-11.48-1.18-14.35-.66-.82-1.21-.93-2.26-.79-1.16.15-7.39,3.46-8.43,4.3-.82.66-1.79,1.79-2.22,2.75-1.19,5.55-4.79,12.19-4.22,17.88.04.39.21.72.3,1.09ZM79.9,85.46v3.07l9.8,4.39c-.44-.92-.23-1.93-.32-2.9l-9.49-4.56ZM77.41,90.44c-.62-.61-1.39-1.92-2.34-1.69l-14.54,8.45-.24.41c1.13.57,2.21,1.29,3.51.66l13.61-7.83ZM103.9,89.27l-7.9,4.46v11.63l7.9-4.61v-11.49ZM74.93,118.24l-48.73-24.15v4.02l48.73,25.24v-5.12ZM92.63,105.07v-9.51l-1.32.15v8.57s.02.19.02.19l1.29.61ZM78,122.93c12.36-7.46,25.03-14.4,37.46-21.73v-4.02l-37.46,21.37v4.39Z"/>
  <path d="M72.98,21.54c.97-.22,2.06.47,2.1,1.51s-1.53,2.43-1.81,3.61c-.66,2.72,1.55,3.62,2.71,5.58,1.25,2.13,1.35,4.11.32,6.37-.6,1.33-2.35,4.36-4.01,2.73-1.27-1.24.19-2.57.76-3.64,2.35-4.42-3.93-5.66-3.21-10.96.16-1.2,1.92-4.92,3.14-5.2Z"/>
  <path d="M82.94,21.55c.98-.2,1.96.49,1.96,1.5,0,.85-.87,1.66-1.26,2.41-1.88,3.63.83,4.29,2.3,6.93,1.33,2.4,1.06,4.62-.29,6.93-.7,1.19-2.15,3.31-3.62,1.81-1.38-1.4.63-2.8,1.11-4.17,1.05-2.98-1.44-4.08-2.66-6.27s-1.09-4.19.1-6.39c.4-.75,1.56-2.58,2.38-2.74Z"/>
  <path d="M63.03,21.54c1.47-.34,2.56.76,2.02,2.16-.83,2.12-2.89,3.2-.98,5.96,1.73,2.51,3.6,3.42,3.07,7.1-.22,1.52-2.2,5.42-4.13,4.06-1.81-1.27.46-2.91.74-4.24.56-2.67-1.76-3.78-2.89-5.76-1.2-2.13-1.14-4.37-.05-6.53.31-.62,1.59-2.61,2.22-2.75Z"/>
  <path d="M53.08,70.72c.63-.1.93-.01,1.5.19,4.53,1.57,9.29,4.78,13.86,6.48.82.46,1.18,1.29.81,2.19-.26.64-3.76,2.65-4.58,3.17-2.96,1.86-6.49,4.26-9.55,5.82-1.29.66-1.81.81-3.22.25-4-2.46-8.66-4.26-12.63-6.69-1.26-.77-2.06-1.71-.71-2.95,4.5-2.28,8.83-5.69,13.29-7.93.37-.18.83-.46,1.23-.53ZM42.73,80.49l10.61,5.51,11.05-6.9-10.87-5.02c-3.39,2.17-7.04,3.96-10.44,6.09-.08.05-.41.22-.34.32Z"/>
  <path d="M84.63,73.37c.44-.44,1-.55,1.6-.45.37.06,2.92,1.22,3.23,1.45,1.43,1.07.4,3.21-1.28,3.04-.4-.04-3-1.21-3.36-1.48-.84-.62-.93-1.83-.19-2.56Z"/>
  <path d="M83.81,78.03c.37-.08.57-.04.92.04s2.77,1.17,3,1.39c1.16,1.08.21,3.17-1.29,3.05-.43-.04-3.08-1.27-3.4-1.58-.93-.91-.54-2.62.77-2.89Z"/>
</svg>