<?xml version="1.0" encoding="UTF-8"?>
<svg id="_Слой_1" data-name="Слой 1" xmlns="http://www.w3.org/2000/svg" viewBox="0 0 150 150">
  <path d="M119.95,69.46c-1.71,1.7-5.16,2.47-7.1,3.95l-.03,15.61c.02.09.9.48,1.08.56,4.56,2.06,9.83,3.58,14.25,5.8,1.42.71,2.53,1.61,2.69,3.31.19,2.11.23,6.87,0,8.93-.23,2.02-2.58,3.02-4.15,3.9-14.99,8.48-30.56,16.05-45.68,24.27-1.88.58-3.28.54-5.11-.17-18.77-9.55-37.51-19.16-56.39-28.49-1.24-.79-1.84-1.84-1.95-3.32-.16-2.02-.23-8.36.56-9.98.22-.45.8-1.13,1.19-1.44,1.62-1.26,6.11-3.19,8.2-4.24,6.86-3.47,13.89-6.62,20.57-10.46l.05-17.17-.31-.28c-2.43-1.13-5.23-1.9-7.62-3.06-1.09-.53-1.73-.91-1.86-2.24-.25-2.67-.25-8.45.02-11.11.17-1.6,1.09-3,2.36-3.93,3.84-2.01,7.66-4.09,11.52-6.04,1.49-.75,3.67-2.01,5.34-1.98,1.92.03,7.95,2.92,10.14,3.78,13.18,5.17,26.45,10.16,39.59,15.44,3.15,1.26,6.61,2.08,8.66,4.95,1.93,2.7,3.46,6.1,5.29,8.91.31,1.68-.09,3.28-1.3,4.49ZM107.41,55.76l-49.28-19.43c-.98-.17-1.44.08-2.29.42-3.08,1.26-6.23,3.29-9.17,4.88l49.75,19.62c.3.06.57-.09.84-.21,1.18-.52,2.64-1.51,3.87-2.13,1.8-.9,4.31-1.83,5.94-2.84.08-.05.41-.22.34-.32ZM94.54,74.34v-9.29l-51.95-20.56v9l51.95,20.85ZM98.78,75.95l18.44-9.58-4.77-8.26-13.67,6.94v10.9ZM52.39,62.05v13.61l4.44-2.33.11-.23-.03-9.28-4.52-1.78ZM66.88,67.76l-5.64-2.19c-.45-.04-.07.16-.07.22v5.2c1.84-.83,3.76-.97,5.71-.44v-2.78ZM80.78,73.32l-9.95-3.95v4.17c.37.41.89.6,1.36.83,2.76,1.36,5.75,2.3,8.59,3.49v-4.54ZM101.56,110.41v-7.1l-24.14,13.54c-1.41.7-2.28,1.13-3.86.49l-39.12-19.71c-1.48-.95-1.11-2.9.29-3.72l28.53-14.49c2.26-.91,4.29,1.96,2.06,3.52-8.11,4.39-16.89,8.07-24.93,12.53-.38.21-.9.47-1.17.81l34.14,17.16c.96.29,1.29.1,2.11-.3,2.78-1.36,5.69-3.34,8.44-4.88,5.97-3.34,11.96-6.64,17.95-9.93l-17.52-7.59c-.48-.07-1.26,1.41-2.03,1.72-1.5.6-2.71-.48-2.34-2.05.14-.58,1.95-3.23,2.43-3.57.77-.54,1.57-.4,2.37-.04l16.79,7.13v-5.27l-18.92-7.58c-2.08,1.71-4.04.38-6.11-.47v1.76c1.41-.16,3.39.69,3.04,2.38-.09.45-1.11,1.87-1.43,2.38-1.28,2.04-3.23,5.77-5.77,2.84-.48-.55-3.52-4.92-3.59-5.34-.33-1.96,2.12-2.61,3.65-2.11v-3.29c0-.54-2.27-1.1-2.78-1.32-1.72-.75-2.06-1.54-2.79-3.21-.91-.25-1.86-.48-2.82-.34l-41.37,20.97c.13.17.3.28.48.39,3.05,1.96,7.92,3.98,11.32,5.66,14.14,6.98,28.28,14.03,42.45,20.91l1.56.02c5.31-2.49,10.55-5.22,15.75-7.96,2.45-1.29,4.9-2.6,7.31-3.95ZM101.71,79.17c-1.25.51-2.57,1.11-3.96.81l-13.02-5.06v2.27l16.98,7.24v-5.27ZM108.73,106.83v-31.46l-3.07,1.47c0,.1.15.18.15.21v31.24l2.93-1.46ZM112.83,93.66v10.98l12-5.93-12-5.05ZM76.39,126.29l-3.71-1.48-51.02-25.44v4.24l54.73,27.66v-4.98ZM80.49,126v5.56l46.3-24.72.21-1.4-.19-3.29-46.32,23.85Z"/>
  <path d="M76.06,14.23c1.73-.32,2.81.63,2.67,2.38-.16,1.97-2.05,3.52-2.05,5.42,0,1.79,1.81,3.5,2.04,5.58s-1.05,7.24-4.07,5.25c-1.63-1.08-.49-2.5-.31-3.81.3-2.26-1.18-3.24-1.67-5.18-.81-3.23.37-4.7,1.71-7.36.44-.87.44-2.03,1.69-2.26Z"/>
  <path d="M86.45,14.23c1.68-.35,2.82.66,2.66,2.36-.17,1.73-2.15,3.92-2.19,5.28-.05,1.54,2.04,3.89,2.21,6,.16,2.07-1.16,6.86-4.09,4.97-1.68-1.09-.51-2.5-.34-3.84.28-2.14-1.16-3.26-1.64-5.16-.82-3.23.55-4.94,1.86-7.65.39-.8.35-1.72,1.54-1.97Z"/>
  <path d="M65.66,14.23c.94-.22,2.12.11,2.59,1,1.04,1.98-1.9,4.64-1.97,6.64-.06,1.68,1.29,2.93,1.75,4.55.53,1.84.36,4.32-.81,5.91-.79,1.07-2.53,1.25-3.35.15-1.1-1.48.31-2.89.2-4.29s-1.28-2.69-1.7-4.01c-1.07-3.37.32-4.95,1.7-7.73.36-.73.53-1.98,1.59-2.22Z"/>
  <path d="M72.83,108.24c-3.04,2.85-5.99-3.71-8.25-4.16-2.48-.5-5.89-.05-8.29-.63-1.09-.27-2.54-1.47-1.62-2.61.62-.76,4.8-2.46,4.89-2.73.07-.2-.06-.29-.13-.42-.58-1.07-2.43-2.67-2.82-3.62-.57-1.4.89-2.13,2.12-1.97,2.92.37,6.27,2.28,9.26,2.72,2.37-.47,5.18-2.06,7.5-2.43.83-.13,1.67-.05,2.31.54,1.44,1.34-.36,3.46-.16,5.13.22.45,5.11,2.09,6.03,2.61,2.47,1.39.77,2.89-1.35,3.1-1.99.2-4.15.08-6.14.3-.29.03-.82.13-1.06.26-.66.35-1.48,3.18-2.28,3.93ZM73.76,96.59c-1.57.31-3.79,1.57-5.35,1.61-.91.02-4.41-1.32-4.6-1.17.84,1.21,1.12,1.85-.16,2.84-.56.44-1.38.63-1.89,1.11,1.52.12,3.47-.02,4.86.63,1.51.7,2.49,2.51,3.92,3.33.65-3.01,2.55-4.08,5.56-3.81l-2.39-1.19c-1.18-.81.04-2.23.05-3.34Z"/>
  <path d="M64.5,86.52c.6-.12,1.26-.01,1.72.4.36.32,2.41,3.37,2.49,3.8.34,1.65-1.43,2.32-2.79,1.62-.73-.37-2.57-2.82-2.69-3.6-.16-1.01.18-2,1.27-2.23Z"/>
</svg>