<?xml version="1.0" encoding="UTF-8"?>
<svg id="_Слой_1" data-name="Слой 1" xmlns="http://www.w3.org/2000/svg" viewBox="0 0 150 150">
  <path d="M79.04,25.74l1.77.05c7.38,3.6,14.67,7.63,21.87,11.65,3.99,2.23,10.33,4.7,10.74,9.9-.53,9.69.69,20.11,0,29.72-.04.61-.51,2.2-.42,2.59.16.66,1.68,2.93,2.1,3.77,3.01,5.95,5.21,11.57,10.31,16.18,1.52,1.37,5.96,3.66,2.69,5.9-2.86,1.95-7.4,3.82-10.59,5.51-7.48,3.97-15.37,8.76-22.97,12.3-1.68.78-1.99.63-3.56-.25-6.4-3.59-10.62-11.42-13.6-17.87-.08-.17-.12-.35-.12-.54-.2-.04-.36.05-.54.11-1.25.44-4.88,2.33-6,3.08-.62.42-.84,1.04-1.46,1.47-1.61,1.11-4.37,2.22-6.2,3.17-3.82,1.98-4.59,3.57-9.02,1.27-9.1-4.71-17.86-10.82-26.93-15.65-2.23-1.46-3.5-3.84-3.97-6.42-.39-13.24-.05-26.53-.17-39.79.08-4.29,4.85-6.49,8.25-8,1.13-.5,2.37-.79,3.61-.71-.35-2.76-.3-5.71,1.4-8.03s4.63-3.02,6.93-4.48c7.71-3.36,15.22-8.18,22.88-11.51,5.61-2.43,11.09,1.3,13,6.59ZM51.07,45.22l23.12-11.48c3.24-2.89.84-9.14-2.64-10.69-2.03-.9-3.34-.15-5.12.73-6.7,3.28-13.54,6.81-20.14,10.31-.2.11-.42.16-.64.16-.04.2-.03.19.09.3.39.37,1.07.77,1.45,1.15,2.33,2.36,3.97,6.19,3.87,9.52ZM104.49,43.17l-24.37-12.88-.65,3.22,21.12,11.6c.19.13.31.06.49,0,.86-.29,2.33-1.17,3.2-1.64.15-.08.28.08.21-.3ZM80.92,41.84c.13-.18-.46-1.67-.59-1.94-.45-.89-2.14-3.03-3.21-2.82l-27.32,13.67-.19.33,6.45,3.45,24.86-12.68ZM40.65,37.2c-2.62.42-2.12,4.89-1.35,6.69,1.06,2.5,3.7,3.26,5.94,4.47,2.71-1.75,1.62-5.94.11-8.18-.9-1.33-2.95-3.27-4.69-2.99ZM96,47.71l-8.39-4.79-27.02,14.09,7.94,4.44,27.47-13.74ZM109.17,74.05v-26.71c0-.12-.58-1.13-.92-.93l-5.39,2.83c.27,6.23.07,12.5.22,18.74,2.28,1.78,4.26,3.83,6.09,6.07ZM30.29,49.61l28.96,16.47,4.4-2.2-28.82-16.25c-.39-.13-.78-.1-1.18,0-.58.15-2.59,1.28-3.17,1.65-.14.09-.26-.02-.19.33ZM98.78,51.22l-27.8,13.9v10.83l27.8-14.05v-10.68ZM27.22,52.68v38.41c0,.95,1.36,2.99,2.26,3.44l27.88,16.09c.03-6.61-.04-13.22,0-19.84.03-5.86.62-12.65.16-18.44-.11-1.4-.71-2.72-1.86-3.56l-28.44-16.12ZM61.61,108.29l5.07-2.7.05-38.42-5.28,2.73c.09.68.28,1.34.31,2.02.45,8.41-.08,17.59-.16,26.05-.03,3.44.04,6.88,0,10.32ZM123.22,103.03c-.98-.66-2.05-1.73-2.86-2.63-8.41-9.4-9.81-22.88-21.45-30.06-.95-.58-3.01-1.9-4.04-1.58l-23.56,12-.46.42.15,7.04c2.5,2.06,4.6,4.89,6.32,7.65,4.96,7.95,7.25,17.95,15.59,23.34l30.3-16.18ZM70.83,94.1v8.78l4.39-2.05c-1.3-2.34-2.54-4.76-4.39-6.73Z"/>
  <path d="M97.27,102.1l-8.68,4.43c-.7,0-1.19-.51-1.55-1.06-.81-1.23-1.51-3.13-2.24-4.5-.83-1.56-2.07-3.45-2.74-5.02-.42-1-.35-1.47.56-2.12,2.45-1.03,4.9-2.95,7.31-3.96,1.14-.48,1.88-.29,2.57.76,1.91,2.88,3.17,6.73,5.13,9.65.31.69.04,1.27-.37,1.82ZM90.58,93.8l-4.53,2.2,3.22,6.44,4.39-2.2-3.07-6.44Z"/>
  <path d="M76.58,87.91c-.69-.79-.33-2.03.58-2.47l19.56-10.15c2.08-.49,3.09,1.81,1.13,2.89l-19.61,10.1c-.48.29-1.34,0-1.67-.37Z"/>
  <path d="M104.29,84.68l-9.32,5.09c-1.68.75-3.28-1.36-1.74-2.62l9.21-4.99c1.68-.49,3.01,1.1,1.86,2.52Z"/>
  <path d="M108.1,91.08c1.61-.05,2.32,2.07.92,2.94-2.46.94-5.21,3.29-7.6,4.1-2,.68-3.24-1.54-1.6-2.77,2.38-1.09,4.67-2.71,7.01-3.82.38-.18.84-.44,1.27-.46Z"/>
  <path d="M106.06,59c2.42-.46,2.07,4.1-.33,3.93-1.85-.13-1.54-3.58.33-3.93Z"/>
  <path d="M104.83,55.56c-1.25-1.34.57-4.5,2.29-3.24s-.63,5.04-2.29,3.24Z"/>
  <path d="M41.96,41.29c1.56-.32,2.89,2.6,1.61,3.37-1.92,1.15-3.69-2.95-1.61-3.37Z"/>
</svg>