<?xml version="1.0" encoding="UTF-8"?>
<svg id="_Слой_1" data-name="Слой 1" xmlns="http://www.w3.org/2000/svg" viewBox="0 0 150 150">
  <path d="M113.12,94.39l-10.94,6.47-.03,10.44c-.04,1.12-1.85,2.26-2.84,2.21-.68-.03-5.34-1.96-6.05-2.41-.33-.21-1.22-1.08-1.22-1.42v-3.59l-34.93,21.49c-1.27.55-1.95.1-3.12-.35-9.76-3.69-19.29-8.89-29.08-12.62-.75-.52-1.13-.92-1.22-1.85-.11-1.19-.18-6.29.07-7.25.09-.33.4-.73.67-.94l3.65-2.13-8.39-3.39c-2.65-2.49,1.56-3.77,3.26-4.89,6.05-3.99,9.98-11.27,13.12-17.61l.06-36.23c.52-4.81,3.07-8.51,7.04-11.1,2.69-1.76,6.27-3.9,9.11-5.38,2.45-1.27,4.04-1.64,6.76-.86,18.57,7.25,37.58,13.43,56.15,20.68,4.42,1.73,8.35,3.35,8.75,8.81l-.02,46.53c-.08.55-.59,1.14-1.02,1.46-.64.48-4.74,2.78-5.35,2.85-1.02.12-3.39-.84-4.01-1.67-.08-.11-.44-.69-.44-.73v-6.51ZM113.12,46.83l-55.87-20.45c-.85-.15-1.69.06-2.48.37l-8.83,5.15c-.04.2.15.16.29.22,2.97,1.21,6.03,2.29,9.04,3.4,15.89,5.9,31.81,11.71,47.71,17.58.31.03,1.54-.96,1.95-1.21,2.55-1.55,5.59-3.06,7.99-4.73.13-.09.27.02.19-.32ZM98.49,97.02v-35.34c0-.46.44-1.79.62-2.3.38-1.11,1.04-2.08,1.43-3.18l-58.14-21.35c-1.74,1.89-2.45,4.53-2.6,7.07v26.71s2.08-3.26,2.08-3.26c1.79-2.36,3.77-4.87,6.41-6.25.15-.19-.97-.49-1.12-.56-3.04-1.41-4.29-3.94-4-7.27.34-3.86,4.41-8.95,8.71-7.4,13.3,5.34,27.14,9.55,40.35,15.12,4.67,1.97,5.65,7.05,3.41,11.38-.23.44-1.04,1.37-1.1,1.68-.43,2.23.21,6.01,0,8.49-.11,1.34-.74,2.37-2.24,2.08l-6.98-2.53c-3.03,2.39-4.61,6.07-6.3,9.44l19.46,7.47ZM55.9,57.8v-2.27c0-.38.53-1.93.71-2.37l1.64-2.83c-2.33-.6-4.51-1.75-6.8-2.49-1.07-.34-1.45-.73-2.49,0-1.86,1.33-3.07,5.36-.94,6.94l7.89,3.01ZM102.15,96.59l17.93-10.54.08-33.3c-.12-1.46-1.14-4.24-3.04-3.61-2.96,1.79-6.06,3.38-9.01,5.18-1.81,1.11-3.09,1.78-4.23,3.67-.44.74-1.73,3.68-1.73,4.42v34.17ZM75.07,64.98v-2.41c0-.44.62-2.19.85-2.66l1.64-2.39c-4.58-1.51-8.97-3.57-13.53-5.13-.91-.31-1.21-.59-2.13-.08-2.22,1.22-3.45,5.31-1.41,7.13l14.59,5.53ZM86.63,69.37c-.17-2.75.69-5.54,2.78-7.39l-6.84-2.67c-3.33-.65-5.29,5.63-2.71,7.54l6.77,2.52ZM86.93,73.47l-33.81-12.81c-.68-.15-1.59.53-2.18.9-6.86,4.23-9.3,12.58-13.01,19.33-3.26,5.93-6.93,12.5-12.81,16.13l-.09.3,34.62,13.77c.78.02,1.68-.88,2.26-1.4,7.53-6.63,10.98-16.59,15.63-25.2,2.77-5.12,4.66-7.15,9.21-10.69.12-.09.27,0,.18-.33ZM90.62,69.91c.81.78,2.01-1.17,2.27-1.83.47-1.16.9-3.06-.2-3.97-1.91.32-3.36,4.54-2.06,5.79ZM116.93,99.51c1.12-.53,2.31-1.13,3.22-1.98v-7.1l-3.22,1.98v7.1ZM92.03,98.5l-2.03-.67-13.75,8.49c-1.89.98-3.74-1.38-2.21-2.94l11.56-7.17-8.33-3.29c-3.46,7.26-7.37,14.58-13.47,19.98-1.12.99-2.82,2.62-4.39,2.19l-26.88-10.88-2.68,1.51,32.82,14.1,29.34-18.15v-3.17ZM95.71,99.95v8.12l2.78,1.24-.17-8.32-2.61-1.05ZM27.37,108.44v3.22l28.21,12.27c.77.15,2.75-1.34,3.4-1.87l-31.61-13.61Z"/>
  <path d="M54.25,65.58l19.98,7.33c2.9.93.1,3.21-.89,4.6-3.51,4.91-6.29,10.25-9.19,15.54l-21.21-8.32c-.59-.52-.23-1.14,0-1.76.86-2.26,2.76-5.25,4.05-7.36,2.13-3.47,4.5-7.04,7.25-10.03ZM70.24,75.37l-14.71-5.54c-3.1,4.01-5.83,8.33-8.12,12.86l15.22,5.86,3.2-6.1,4.41-7.07Z"/>
  <path d="M42.68,92.65l6.19,2.4-1.7,2.25c-2.11-.67-4.18-1.48-6.19-2.4l1.71-2.25Z"/>
  <polygon points="50.05 98.63 51.59 96.29 51.87 96.14 57.8 98.56 56.1 100.8 50.05 98.63"/>
  <path d="M64.98,101.12l-1.7,2.49-4.16-1.47c-.1-.11,1.51-2.42,1.71-2.47l4.14,1.44Z"/>
  <path d="M39.8,91.47c-.3.36-1.52,2.4-1.83,2.44l-4.02-1.63,1.82-2.38,4.03,1.57Z"/>
</svg>