<?xml version="1.0" encoding="UTF-8"?>
<svg id="_Слой_1" data-name="Слой 1" xmlns="http://www.w3.org/2000/svg" viewBox="0 0 150 150">
  <path d="M34.39,86.2l-2.19,2.71c-2.08,1.88-5.71,5.24-8.74,4.05-1.13-.44-4.33-2.26-5.36-2.98-.92-.64-1.25-1.66-.66-2.66.44-.74,1.64-1.09,2.37-1.58,4.12-2.81,4.8-8.44,6.35-12.82,3.87-10.91,8.07-12.64,18.09-17.03.4-.18.83-.37,1.27-.41.14-.13-2.33-1.57-2.56-1.76-5.15-4.18-3.8-13-.83-18.1,3.54-6.07,11.6-11.01,18.25-6.52,2.24-3.42,5.27-6.55,9.29-7.8,5.71-1.78,8.87.94,13.56,3.56,7.99,4.47,15.97,9.08,23.76,13.85,1.26,1.23,2.34,2.7,2.94,4.37,7.61,4.83,15.9,8.77,23.4,13.77l.37.8.05,36.95c-.28,2.08-3.99,2.64-5.48,3.74-.42,3.01,1.02,7.09-2.36,8.76-16.1,7.06-31.79,15.07-47.81,22.29-1.61.73-5.48,2.67-6.97,2.98-.91.19-2.01.11-2.87-.22-2.55-1-5.89-3.97-8.27-4.75-1.3-.43-2.07-.03-3.8-.88-6.41-3.15-13.24-7.73-19.51-11.37-4.17-2.42-8.74-4.71-12.78-7.27-2-1.26-2.22-1.99-1.93-4.47.23-1.95,1.26-2.28,2.81-3.04,3.07-1.51,6.32-2.69,9.39-4.22l.22-9.95ZM96.59,37.03l-20.68-11.73c-4.58-2.32-9.56,1.85-11.93,5.53l23.93,13.94.2.02c1.42-2.54,3.55-4.81,6.01-6.35.25-.16,2.56-1.29,2.48-1.4ZM78.15,43.61c-.95-.38-1.85-.93-2.73-1.44-5.57-3.23-11.36-6.94-17.02-9.91-9.53-4.99-19.88,11.79-12.43,18.73l21.06,11.94c-1.01-6.76,2.77-14.31,8.5-17.91l2.62-1.4ZM100.21,40.29c-4.02.33-7.95,4.36-9.6,7.82.27.9.72,1.72.96,2.64.83,3.12.44,6.08-.38,9.15,6.91,5.81,14.94-3.95,15.5-10.66.35-4.2-1.4-9.36-6.47-8.95ZM81.48,46.87c-7.84.82-14.57,14.46-8.46,19.93,5.39,4.84,12.86-2.88,14.45-8.09,1.45-4.74.58-12.53-5.99-11.84ZM127.32,57.51l-16.68-9.37c-.19,4.82-2.28,9.34-5.49,12.88l-3.88,3.07c1.84.63,3.23,2.03,4.46,3.47l21.59-10.05ZM77.71,72c-1.31-.03-2.63-.18-3.88-.58-2.01-.65-3.84-2.18-5.68-3.25-6.15-3.57-12.37-7.03-18.59-10.48l-11.76,5.36c-3.91,2.2-6.17,6.23-7.7,10.3-1.95,5.19-2.56,11.2-7.27,14.82l2.23,1.22c4.12-1.96,6.35-5.9,8.08-9.94,1.44-3.36,2.3-6.94,4.62-9.87s5.74-4.38,9.07-5.88l22.06,12.36.87-.24,7.95-3.83ZM129.95,60.88l-22.98,10.39v32.63l22.98-10.68v-32.34ZM92.93,65.12c-1.3-.17-2.39-.86-3.51-1.46-.84,1.91-2.45,3.41-3.95,4.83l7.46-3.36ZM98.85,67.38c-.35.01-2.15.81-2.56,1.03-4.1,2.25-8.02,11.04-3.5,14.19,5.47,3.81,13.33-7.72,9.42-13.23-.5-.71-2.52-2.03-3.36-2ZM73.76,88.98l-27.59-15.62c-3.67,2.93-6.8,7.78-7.76,12.4-1.09,5.28.67,11.25-1.41,16.3-.96,2.33-2.69,4.01-4.52,5.65l27.22,15.02c5.81-2.83,7.7-8.28,8.19-14.36s.62-9.7,3.24-15.05c.75-1.52,1.77-2.88,2.61-4.33ZM87.07,76.39c-1.3-.38-3.72-2.6-4.98-2.28-.67.17-1.43.95-2.19.96l7.17,4.24v-2.93ZM80.05,83.42l-7.72-4.37-2.23.71c-.22.22.51.53.63.61,2.41,1.48,5,2.69,7.42,4.16l1.9-1.11ZM103.02,100.54v-17.41c-1.21,1.12-2.41,2.3-3.9,3.05-4.28,2.13-8.37.35-11.56-2.73l-3.41,2.56c.66,1.1,1.12,2.06,1.3,3.35.06.42-.14.99.15,1.32l17.42,9.88ZM80.92,87.8c-2.01,1.21-4.39,3.34-5.44,5.46-.14.29-.37.46-.14.76.76,1,2.66.99,3.72.48,2.57-1.23,3.34-4.3,1.85-6.71ZM103.61,105.51l-18.98-10.96c-.22-.04-1.39,1.57-1.73,1.89-2.62,2.49-6.36,3.08-9.44,1.02-2.46,5.97-1.13,12.51-3.18,18.55-.55,1.61-1.32,3.06-2.21,4.5,0,.1,1.45,1.13,1.74.89l33.81-15.89ZM124.24,103.46v-3.37l-52.83,24.95v3l52.83-24.59ZM26.63,103.9l2.77,1.4c1.65-1.24,3.43-2.74,4.1-4.76-1.94.94-3.96,1.72-5.9,2.65-.17.08-1.2.46-.97.71ZM67.61,127.32v-2.41l-2.27-1.39-1.97,1.39,4.24,2.41Z"/>
  <path d="M46.19,79.34c.24-.08.54-.05.77.06l12.06,6.82c.47.34.79.68.62,1.29-.26.96-1.41,2.76-1.86,3.85-.49,1.17-.98,2.43-1.33,3.65s-.93,5.28-1.42,5.9-1.31.63-2.01.4c-3.26-2.12-7.12-3.77-10.33-5.91-.55-.37-.97-.6-1.2-1.29-.51-1.52.42-4.83.91-6.41.34-1.09,3.11-8.12,3.79-8.35ZM48.07,84.6c-.43.03-2.79,6.69-2.83,7.65l6.78,4.03,2.7-7.8-6.65-3.88Z"/>
  <path d="M42.4,99.1c.4-.09.93-.07,1.32.08l16.48,9.42c2.03,1.33.82,4.18-1.62,3.38l-16.57-9.48c-1.27-.73-1.03-3.07.39-3.4Z"/>
  <path d="M59.82,94.71c.46-.07.67-.01,1.09.15.63.24,3.73,2.01,4.14,2.44,1.46,1.51-.06,3.73-2.02,3.04-.5-.18-3.72-2.04-4.07-2.37-1.06-1-.72-3.04.85-3.27Z"/>
  <path d="M119.53,75.11c5.68-.78,7.05,5.25,4.74,9.43-1.54,2.78-5.42,5.22-8.47,3.3-4.83-3.04-1.47-12.01,3.72-12.72ZM120.11,78.91c-1.12.11-2.27,1.52-2.6,2.52-1.32,4,2.82,3.78,3.88.66.39-1.15.45-3.35-1.28-3.19Z"/>
  <path d="M83.66,53.03c3.94,4.15-2.71,13.26-7.48,9.46-5.1-4.06,2.96-14.22,7.48-9.46ZM80.74,56.23c-.84-.87-3.02,1.8-1.91,2.76,1.26.52,2.72-1.92,1.91-2.76Z"/>
  <path d="M98.45,45.4c8.08-1.18,5.13,12.59-2.2,11.34-5.33-.9-3.06-10.57,2.2-11.34ZM99.33,49.65c-1.34-.97-2.92,2.3-1.87,2.82,1.26.58,2.58-2.1,1.87-2.82Z"/>
  <path d="M97.28,72.91c1.26-.26,2.16.87,2.08,2.07-.11,1.5-1.96,4.03-3.64,3.08-1.97-1.12-.16-4.8,1.56-5.15Z"/>
</svg>