<?xml version="1.0" encoding="UTF-8"?>
<svg id="_Слой_1" data-name="Слой 1" xmlns="http://www.w3.org/2000/svg" viewBox="0 0 150 150">
  <path d="M95.44,33.1c1.27.87,4.9,2.02,5.56,3.29.17.34.24.67.27,1.05.13,1.47.2,6.25-.07,7.55-.15.69-.68,1.15-1.2,1.58l-8.32,4.27c.04,1.87.16,3.77.08,5.64-.05,1.22-.12,2.79-.44,3.95-.65,2.37-2.48,4.37-4.69,5.41l43.03,22.53c.89.75,1.45,1.62,1.59,2.8.29,2.47.2,7.53.02,10.09-.1,1.49-.62,2.69-1.69,3.73-16.07,9.21-32.52,17.87-48.66,27-4.02,1.87-8.4,1.9-12.3-.3-11.15-6.15-22.26-12.39-33.41-18.54-4.4-2.43-9.85-4.85-13.96-7.56-1.29-.85-2.15-2.06-2.38-3.62.25-3.88-.34-8.17,0-12,.34-3.92,5.69-5.72,8.78-7.31,11.52-5.93,23.22-11.51,34.68-17.56-5-3.34-3.82-9.2-3.97-14.39l-8.6-4.35c-.7-.54-.97-1.17-1.04-2.03-.15-1.73-.16-5.01,0-6.74.23-2.62,4.27-3.33,6.08-4.75,3.15-22.71,37.75-22.46,40.64.26ZM73.73,19.86c-8.5.61-15.01,6.91-15.33,15.54-.07,1.82.19,2.05,1.65,3.03,6.58,4.44,24.54,4.86,30.69-.4,1.48-1.27,1.1-2.57.86-4.37-1.21-8.98-9.02-14.44-17.86-13.81ZM54.58,37.52l-1.88.97c.09.84-.25,4.68.12,5.1l20.73,10.59c.94.43,1.92.59,2.89.15l21.03-10.76v-5.08s-1.76-.98-1.76-.98c-.34,1.63-1.65,2.91-2.94,3.86-8.07,5.97-27.14,5.84-35.3.06-1.3-.92-2.68-2.3-2.88-3.92ZM62.34,52.89v5.93c0,.12.5,1.23.61,1.43,3.15,5.58,19.25,5.34,23.44,1.11,1.69-1.71,1.62-4.38,1.56-6.65-.02-.67-.33-1.25,0-1.97-3.41,1.39-6.76,3.82-10.14,5.15-2.1.83-3.59.72-5.66-.1l-9.81-4.9ZM66,67.82c-.21-.04-.36.05-.54.11-2.8,1.02-6.67,3.32-9.46,4.73-11,5.55-22.02,11.15-32.94,16.81-.17.43-.14.93.32,1.15,15.87,8.4,31.63,17.01,47.37,25.66,2.79,1.26,5.53,1.36,8.35.1l47.07-25.59-41.93-21.8c-.32-.05-.17.04-.21.22-.48,2.07-.87,3.34-2.74,4.58-5.1,3.39-15.73,1.77-15.27-5.97ZM80.34,67.96c-3.57.57-7.12.59-10.68,0-.04,3.41,3.93,3.72,6.52,3.52,2.02-.16,4.34-1.15,4.17-3.52ZM76.98,129.28l2.59-.85,47.37-26.1c.19-.09.68-.64.68-.78v-7.39l-46.58,25.49c-1.31.53-2.61,1.18-4.05,1.29v8.34ZM73.17,120.94c-1.55-.02-3.01-.78-4.39-1.39l-46.24-25.25v7.24c0,.31.91.98,1.22,1.12,15.75,7.94,30.95,17.73,46.68,25.61.92.46,1.69.82,2.73,1v-8.34Z"/>
  <path d="M110.34,58.45c1.04-.64,2.42-2.89,3.6-3.06,1.75-.26,2.84,1.6,1.75,3.07-1.54,2.08-4.44,3.98-6.15,6-.82.57-1.81.36-2.56-.22-1.34-1.03-4.28-4.02-5.49-5.34-1.81-1.97.29-4.59,2.35-3.08.93.68,1.72,1.96,2.71,2.63v-14.71s.26-.61.31-.71c.68-1.13,2.38-1.17,3.12-.09.07.11.37.74.37.8v14.71Z"/>
  <path d="M43.61,58.45c1.03-.64,2.43-2.89,3.6-3.06,1.78-.26,2.89,1.58,1.75,3.07-1.01,1.31-3.6,3.73-4.9,4.9-1,.9-2.03,2.07-3.44,1.1-1.72-1.99-4.61-3.93-6.15-6-.98-1.32-.02-3.2,1.61-3.09,1.26.09,2.67,2.42,3.73,3.08v-14.71s.26-.61.31-.71c.68-1.13,2.38-1.17,3.12-.09.07.11.37.74.37.8v14.71Z"/>
  <path d="M90.23,101.85c-.76.82-1.8,1.43-2.76,1.99-4.97,2.86-10.46,5.43-15.61,7.95-3.32.95-5.59.16-8.49-1.31-4.9-2.48-10.25-5.38-15.02-8.1-5.56-3.17-6.12-5.85-5.61-12.25.15-1.85,1.05-3.16,2.6-4.14,5.89-2.62,11.77-6.82,17.65-9.27,3.97-1.66,6.69-.98,10.35.83,5.16,2.55,10.98,5.5,15.95,8.34,1.94,1.11,3.01,2,3.21,4.4.31,3.74.42,8.71-2.26,11.57ZM88.35,90.31c.31-.41.13-.67-.3-.87l-18.92-9.76c-1.43-.53-2.53-.41-3.91.15-5.91,2.42-11.87,6.69-17.8,9.27-1.63.8-.6,1.31.44,1.91,5.62,3.25,11.71,5.78,17.37,8.98,1.63.75,3.64.64,5.23-.15l17.91-9.53ZM88.68,94.45l-17.51,9.2c-2.34,1.06-4.81,1.01-7.18.05-4.13-1.68-9.29-4.82-13.37-6.97-1.36-.72-2.73-1.45-4.02-2.27-.21,1.44.64,2.79,1.78,3.63,5.5,2.67,10.7,5.97,16.14,8.73,2.63,1.34,4.13,2.12,7.13.97l15.32-8.1c.71-.42,1.71-2.06,1.71-2.83v-2.41Z"/>
  <path d="M66.84,83.95c.6-.11,1.09-.04,1.65.19,2.96,1.18,6.12,3.52,9.12,4.78.86.65.66,1.57-.15,2.15-1.04.74-3.07,1.64-4.29,2.3-1.1.59-4.67,2.63-5.63,2.71-.39.03-.84.03-1.21-.12l-9.61-4.88c-.59-.46-.53-1.5.06-1.95l10.05-5.17Z"/>
</svg>