<?xml version="1.0" encoding="UTF-8"?>
<svg id="_Слой_1" data-name="Слой 1" xmlns="http://www.w3.org/2000/svg" viewBox="0 0 150 150">
  <path d="M109.33,67.6c.57.07,1.05.31,1.55.57,2.9,1.54,5.99,3.35,4.51,7.2l-7.1,9.44,12.95,7.98c.78.65,1.02,1.08,1.11,2.11s.13,4.66-.19,5.53c-.37,1.03-1.59,1.36-2.52,1.72-15.22,5.95-31.49,10.28-46.79,16.13-2.14.65-2.81.59-4.75-.45-5.09-2.74-10-6.27-15.08-9.07-2.08.58-2.84,1.04-4.87.05-6.25-3.06-12.33-7.64-18.57-10.84-.68-.4-1.29-1.04-1.59-1.77-.47-1.16-.47-5.76-.31-7.12s1.33-2.54,2.63-2.96c.19-3.42-.28-7.15-.01-10.53.05-.59.19-1.23.42-1.78,2.15-3.85,4.21-7.76,6.44-11.56,1.1-1.88,1.91-3.99,3.98-4.95s4.48-1.5,6.57-2.29c.34-2.79-1.04-6.88,1.91-8.55,11.94-4.18,24.1-7.81,36.15-11.71,2.38-.5,3.61.01,5.66,1.08,5.79,3,11.34,6.69,16.96,9.97.59.67.87,1.53.95,2.41v19.38ZM101.41,46.54l-13.71-7.72-.7-.04c-10.06,3.21-20.15,6.34-30.19,9.62-.17.06-1.93.56-1.79.77l13.82,7.89,32.56-10.53ZM105.22,49.9l-33.51,10.68v27.8l24.2-8.07c3.12-3.23,5.48-7.41,8.44-10.73.29-.32.87-.61.87-.66v-19.02ZM62.63,65.42s-.5-.16-.68-.27c-3.81-2.32-7.69-4.53-11.57-6.73l-7.76,2.71-.31.44.22.32,11.13,6.71,8.77-2.88c.23.07.28-.22.2-.3ZM51.05,71.88l-10.95-6.46-4.11,7.38,11.34,6.67,3.72-7.6ZM50.2,94.39l2.05-.65c.68-4.82,5.95-9.95,11.01-7.94,1.21.48,1.78,1.57,3.18.48v-17.49l-10.94,3.55-5.31,10.43v11.63ZM108.24,71.74l-.45.27-3.01,4.01,3.15,2.09,3.58-4.43-3.27-1.94ZM46.1,94.54v-10.76l-11.64-6.95c-.45-.04-.07.16-.07.22v10.1s-.21.17-.01.29l11.72,7.1ZM97.31,91.9l8.05-10.32-3.06-2.06-8.35,9.97,3.36,2.41ZM117.66,95.27l-12.05-7.16-6.76,8.32c-2.61,1.3-5.35,3.46-7.97,4.62-1.76.78-3.13.21-3.38-1.76l2.13-10.91-22.94,7.5c-2.05,3.2-5.27,6.05-9.36,5.49-1.46-.2-2.78-1.22-3.72-2.28l-1.51.49,18.73,11.42.37.07,46.46-15.81ZM59.96,90.33c-2.18.45-4.33,4.71-2.06,6.09,1.91,1.16,4.57-1.26,4.84-3.16.29-2.01-.62-3.37-2.78-2.93ZM49.76,101.56c-1.11-.61-2-1.2-3.27-1.49l-14.59-8.75v3l17.85,10.46v-3.22ZM94.39,94.25c-.44.08-1.51-1.13-1.76-.88l-.29,2.2,1.96-1.01.09-.3Z"/>
  <path d="M87.37,74.27s.22-.16.15-.22c-.12-.02-.22,0-.33.03-2.66.56-5.99,2.45-8.55,2.86-1.13.18-1.81-.2-1.94-1.35-.17-1.46-.18-5.43,0-6.88.07-.58.41-1.14.92-1.42l9.85-3.33c-.31-1.98-.26-6.8,2.98-5.05,2.8,1.52,5.6,4.29,8.42,5.92.75.6.66,1.75.14,2.48-2.92,3.29-5.36,7.36-8.26,10.62-.7.78-1.26,1.3-2.38.78-.44-.21-.98-1.06-.98-1.5,0-.87-.11-2.12,0-2.93Z"/>
  <path d="M79.45,100.96c.59-1.36,1.01-4.43,1.91-5.48,1.03-1.21,3.37-.14,3.38,1.32,0,1.78-1.81,5.08-2.09,6.99-.31.89-1.22,1.16-2.08,1.13-1.71-.06-6.21-.76-7.87-1.21-2.09-.57-1.66-3.68.68-3.62.83.02,5.84,1.07,6.07.87Z"/>
  <path d="M62.3,72.03c.59-.05,1.25.31,1.35.93.16,1.02.16,5.1.02,6.14-.08.62-.48.69-.99.91-1.91.83-5.77,2.12-7.79,2.6-.46.11-2.06.4-1.84-.51.13-.54.72-1.67.98-2.25.57-1.25,1.3-2.67,2-3.85s1.13-2.17,2.41-2.71c.53-.22,3.45-1.22,3.87-1.26Z"/>
  <path d="M37.71,81.98c.23-.02,1,.44,1.26.58.75.4,3.79,2.17,4.2,2.68.66.81.74,2.2.36,3.14-.4,1-.69.97-1.58.56-.74-.33-4.52-2.67-4.85-3.2-.53-.84-.63-3.66.6-3.77Z"/>
</svg>