<?xml version="1.0" encoding="UTF-8"?>
<svg id="_Слой_1" data-name="Слой 1" xmlns="http://www.w3.org/2000/svg" viewBox="0 0 150 150">
  <path d="M73.46,44.34c.2-1.22.92-2.02,1.92-2.7,5.14-3.52,11.43-6.2,16.67-9.68,1.91-.85,3.19-.61,4.98.3,5.85,2.94,11.6,7.12,17.34,10.31.59.57.98,1.49,1.08,2.29.24,2.09.21,6.79.02,8.92-.1,1.19-.58,1.54-1.48,2.18-3.13,2.19-7.05,3.86-10.28,5.96l-.24.34c5.96,3.68,12.02,7.21,18.05,10.78,1.98,1.17,4.63,2.39,6.44,3.66.76.53,1.19,1.15,1.27,2.09.28,3.16-.21,6.74-.02,9.94-.1.7-.64,1.33-1.17,1.76-17.51,10.15-34.78,20.72-52.3,30.83-1.22.39-2.24.26-3.4-.27l-53.36-31.67c-.94-.56-1.61-1.26-1.72-2.38-.24-2.54-.23-7.71,0-10.26.05-.59.2-1.14.66-1.54l9.74-5.92c.31-.37.07-2.07.25-2.83s.8-1.33,1.37-1.85c11.33-6.37,22.3-13.37,33.55-19.86,1.21-.7,4.37-2.71,5.6-2.74,1.51-.04,3.61,1.82,5.03,2.33ZM77.27,44.2c.91,1.03,5.89,3.05,6.33,3.98.88,1.84-5.44,2.46-2.28,4.62,1.48,1.01,3.34.73,4.83-.1,1.64-.91,1.8-1.96,3.95-.93.9.43,3.5,2.24,4.22,2.24.2,0,.32-.04.5-.1.81-.27,3.12-1.84,4.06-2.38,4.06-2.35,8.09-4.76,12.05-7.27l-15.84-9.33-1.46-.08-16.35,9.33ZM76.1,64.02c.24,1.63-.18,3.8,0,5.49,1.38-.65,3.17-2.29,4.75-2.2,1.39.08,3.72,1.61,5.01,2.32,2.35,1.29,4.89,2.7,7.17,4.1,1.24.76,2.65,1.38,2.83,3.02-.29,3.1.4,6.93-.01,9.94-.14,1.02-.91,1.83-1.76,2.34-7.24,3.96-14.16,8.61-21.4,12.55-1.27.69-2.08,1.29-3.65.97-12.69-7.36-25.42-14.71-37.96-22.33-.74-.45-3.26-1.51-3.26-2.44v-4.76l-6.88,4.24c17.76,10.23,35.22,20.99,52.94,31.29.23.06.45.05.68.02.88-.09,4.29-2.3,5.31-2.89,8.92-5.18,17.71-10.6,26.58-15.86,6.22-3.68,12.58-7.14,18.68-11.02l-24.83-14.69c-2.9.96-4.26,3.36-7.64,2.39-1.08-.31-3.22-1.92-3.89-1.96-.49-.03-2.12.79-2.84.95-2.17.48-4.14.27-6.1-.78-3.43-1.85-2.61-3.71-2.7-7.18-1.15-.45-3.68-1.69-4.01-2.94l-.09-6.71-4.33-2.34h-.51s-16.7,9.77-16.7,9.77l-.09.3,5.35,2.93c1.24-.29,2.2-1.24,3.49-1.62,4.7-1.38,11.18,3.51,6.23,7.69l1.75,1.03c.27.04,4.08-2.4,4.74-2.74.32-.17.88-.51,1.21-.56.92-.12,1.83.8,1.96,1.68ZM95.85,62.93l16.54-9.88v-5.56l-.35-.21-16.19,9.5v6.15ZM77.27,53.85v-2.71c0-.86.84-1.82,1.31-2.47l-2.19-1.26-.15,5.9,1.03.54ZM92.78,62.93v-5.93l-2.93-1.83v6.15l2.93,1.61ZM86.93,56.2c-2.14.75-4.75.75-6.73-.44v5.05c0,.83,2.46,1.49,3.15,1.53s3.58-.31,3.58-1.09v-5.05ZM60.78,70.14c.49-.54,4.34-2.35,4.34-2.61-.79-.68-3.55-1.57-3.66-2.65-.15-1.55,5.12-2.09,3.01-4.31-.75-.79-2.16-.98-3.19-.83-1.51.22-3.59,2.35-4.8,2.24-.43-.04-.88-.31-1.26-.5-2.37-1.15-4.65-2.93-7.03-4.1l-16.58,9.49.14.37,16.92,10.02c.17.03.31-.05.46-.11,1.8-.69,4.06-2.59,5.94-3.43,1.73-.77,2.65,1.23,4.28,1.78,1.27.43,4.74.39,4.1-1.61-.36-1.13-4.32-1.94-2.67-3.75ZM72.88,68.34v-1.76s-1.61.95-1.61.95l1.61.8ZM86.49,79.9c-1.55-.71-3.29-1.59-4.73-2.52-4.06-2.63,1.48-2.7,1.92-4.17.51-1.7-1.76-2.77-3.16-2.59-1.58.2-4.17,2.63-5.51,2.39l-6.75-3.65-3.28,1.83c4.16,3.7.13,7.95-4.46,7.68-1.91-.11-3.52-1.07-5.1-2.02l-3.61,2.09.24.34,16.92,10.15,1.32.08,16.2-9.62ZM47.41,86.2v-5.93l-16.68-10.02v6.07l16.68,9.88ZM86.85,73.91c-.49.79-.88,1.45-1.68,1.97,1.19.71,2.48,1.68,3.7,2.29.16.08.34.22.5.24.54.08,2.13-1.17,2.67-1.51l-5.19-3ZM92.78,80.05l-21.51,12.66v5.93c2.12-1.05,4.19-2.29,6.24-3.49,5.12-2.99,10.22-6.06,15.27-9.17v-5.93ZM72.88,111.51l-52.54-31.17v6.07l52.54,31.39v-6.29ZM75.95,117.66l49.36-29.15.98-.78v-5.93l-50.34,29.71v6.15ZM68.34,92.63l-17.85-10.54v5.93l17.85,10.61v-6Z"/>
</svg>