<?xml version="1.0" encoding="UTF-8"?>
<svg id="_Слой_1" data-name="Слой 1" xmlns="http://www.w3.org/2000/svg" viewBox="0 0 150 150">
  <path d="M82.68,55.02c1.73.56,3.34,1.43,4.9,2.35,1.25-.87,2.52-1.83,4.02-2.2.06-.22,0-.19-.09-.29-.35-.41-.79-.76-1.11-1.21-4.14-5.81-.89-14.06,6.15-15.28,9.68-1.68,15.51,9.54,8.96,16.64,4.8,1.77,8.54,6.32,8.92,11.49.23,3.05.48,7.74-2.53,9.47l-13.86,6.41c3.99,1.95,8.08,3.73,12.05,5.73,1.78.9,4.08,1.56,4.34,3.86.2,1.77.22,7.03-.01,8.77-.08.6-.39,1.11-.87,1.47-1.07.79-3.46,1.75-4.77,2.4-11.04,5.51-22.22,10.85-33.36,16.1h-.99c-11.55-5.5-23.22-10.95-34.68-16.69-1.34-.67-4.2-1.65-4.34-3.27-.19-2.06-.24-7.09,0-9.08.11-.93.93-1.92,1.75-2.34l14.49-7.02c-4.12-2.11-8.5-3.74-12.64-5.8-1.73-.86-2.91-1.58-3.42-3.61s-.27-6.8.29-8.84c1.14-4.13,4.46-7.56,8.45-9.04-6.71-7-.67-18.35,8.96-16.64,6.73,1.19,10.06,9.03,6.41,14.82-.39.62-.97,1.09-1.32,1.6-.09.12-.2.14-.14.37,1.52.31,2.71,1.45,4,2.17,1.56-.91,3.14-1.9,4.92-2.31-2.52-2.41-4.38-5.16-4.83-8.71-.88-6.99,4.01-13.84,11.2-14.41,13.19-1.05,18.76,14.83,9.14,23.12ZM73.43,36.33c-9.21,1.1-9.07,15.89.39,16.65,12.78,1.02,12.37-18.17-.39-16.65ZM51.33,42.48c-7.08.08-7.41,10.51-.62,11.08,8.1.68,8.22-11.17.62-11.08ZM98.31,42.48c-7.67.21-7.12,11.87.84,11.08,7-.7,6.23-11.27-.84-11.08ZM58.98,60c-3-1.94-6.48-2.34-10.01-2.03-7.19.63-10.21,6.73-9.46,13.37.02.2.05.39.17.57l14.91,6.97c.26-4.36-.7-9.22.91-13.35.79-2.03,2.11-3.85,3.48-5.52ZM91.02,78.88v-9.44c0-5.62-7.81-11.13-12.94-11.49-5.81-.41-10.56.01-15.08,3.96-1.71,1.49-4.17,4.9-4.17,7.24v9.73l14.58-7.3c1.07-.49,2.18-.39,3.23.1l14.39,7.2ZM95.12,79.02c4.3-2.23,8.89-3.88,13.22-6.02.77-.38,1.77-.6,1.86-1.51.53-5.36-.44-10.2-5.76-12.55-3.89-1.71-10.07-1.45-13.56,1.13,1.45,1.67,2.71,3.5,3.48,5.59.17.45.77,2.25.77,2.6v10.76ZM78.05,84.39c-.68-.68-.67-1.93-.05-2.66s2.95-1.47,3.91-2.09c.14-.09.39-.17.34-.39-.09-.37-6.04-3.05-6.77-3.62l-.6-.11-31.99,15.8,12.79,6,5.79-2.63c.12-.17-1.81-.94-2.04-1.11-1.21-.87-1.18-2.18-.08-3.13.77-.67,6.1-3.12,7.29-3.54.95-.34,1.44-.34,2.4,0,.88.31,4.92,2.28,5.49,2.81,1.62,1.47.21,3.75-1.68,3.49-1.43-.2-3.75-2.38-5.02-2.47-1.11-.08-1.94,1.08-3,1.18-.07.38.06.23.21.3,1.15.6,2.82.71,2.87,2.41.04,1.08-.77,1.6-1.57,2.09-.45.28-6.1,2.83-5.9,3.1l14.52,7,12.55-5.98-.19-.32-7.71-3.86c-1.73.23-3.11,2.15-4.91.82-.77-.57-1.14-1.67-.64-2.54.33-.59,4.15-2.4,4.89-2.44,1.19-.07,5.25,2.03,6.56,2.66,2.18,1.05,4.27,2.27,6.46,3.29l15-7.12-19.89-9.73-6.85,3.26c-.75.11-1.61.12-2.18-.45ZM72.88,115.46l-.29-5.05-33.22-16.17c.27,1.65.07,3.3.02,4.95l33.49,16.27ZM110.34,94.24l-33.37,16.24v4.98l33.37-16.24v-4.98Z"/>
</svg>