<?xml version="1.0" encoding="UTF-8"?>
<svg id="_Слой_1" data-name="Слой 1" xmlns="http://www.w3.org/2000/svg" viewBox="0 0 150 150">
  <path d="M68.05,45.66h-21.66c.55,1.44,2.38,3.77.51,4.98-2.54,1.64-3.81-2.82-4.87-4.35-.09-.13.02-.27-.32-.19-.11.43-.34.88-.56,1.27-.45.79-1.69,3.35-2.47,3.53-.64.14-1.3.05-1.85-.29-1.88-1.16.07-3.55.63-4.95-1.59-.17-2.98-.37-3.63-2.01s-.36-3.18,1.28-4.07l32.79-6.14c.22-1.08.22-2.14.61-3.19.62-1.68,2.24-3.22,3.92-3.84,4.95-1.83,9.96,1.64,9.66,6.94,4.14.79,8.26,1.67,12.4,2.45,6.35,1.19,13.44,1.98,19.64,3.48,1.78.43,2.87,1.73,2.62,3.65-.28,2.1-2.22,2.34-3.86,2.72-.17.04-.26-.11-.22.21l3.07,5.42c2.57,1.76,7.54,3.25,5.59,7.34-.22.47-1.12,1.39-1.03,1.84.05.23,1.36,2.19,1.61,2.64,2.54,4.55,5.16,9.11,7.43,13.79.29,10.12-10.36,14.99-19.08,15.43s-22.01-3.14-23.48-13.42c-.37-2.56.39-2.79,1.47-4.78,2.94-5.43,5.96-10.82,8.93-16.24,2.22-4.06,4.48-8.11,6.56-12.24h-21.51v3.73c0,.71-1.13,1.78-1.76,2.08-.14,1.15.13,2.38.16,3.48.24,11.1.11,22.63,1.31,33.66.17,1.53.45,3.06.68,4.58l22.51,10.42c.54.48.98.94,1.08,1.7.2,1.45.18,5.68.01,7.16-.09.77-.44,1.28-1.03,1.75-9.93,4.29-19.9,8.59-29.92,12.67l-1.39-.37-28.28-11.97c-.87-.48-1.46-1.05-1.58-2.08-.17-1.48-.18-5.71.01-7.16.1-.76.54-1.21,1.08-1.7l22.44-10.27c.26-1.81.57-3.64.76-5.46,1.23-12.01,1.1-24.23,1.41-36.3-.52-.44-1.7-1.46-1.7-2.19v-3.73ZM77.71,47.27c.03-2.56-.04-5.13,0-7.69.03-2.2.36-4.52.16-6.73-.18-2-1.83-3.01-3.75-2.42-.64.2-1.67,1.17-1.67,1.84v15h5.27ZM82.24,37.76v3.8h19.76l-19.76-3.8ZM68.05,37.9l-19.9,3.66h19.9v-3.66ZM107.12,62.93l5.53-8.73-4.36-8.1-6.88,12.37c.5.16,1.08.14,1.58.32,1.52.53,2.6,2.98,3.76,4,.13.11.16.19.37.14ZM76.39,51.37h-2.63c.1.22.17.4.16.66-.36,13.35-.36,26.82-1.92,40.1-.32,2.76-.83,5.51-1.17,8.27h8.63c-.42-2.9-.95-5.81-1.3-8.73-.83-6.91-1.1-13.82-1.33-20.77-.01-.35-.15-.67-.16-1.01l-.29-18.52ZM116.06,56.35l-8.86,13.46-5.34-6.66h-.29s-1.03.89-1.03.89l6.68,7.96,1.05-.97,9.24-13.88c-.25-.18-1.2-.97-1.45-.8ZM91.9,75.95h32.49l-6.8-11.85-6.74,10.23c-1.32,1.34-3.39,1.82-5.18,1.25-1.26-.4-2.02-1.47-2.86-2.41-1.93-2.17-3.58-4.6-5.7-6.59l-5.2,9.36ZM124.98,80.05h-33.66c.67,2.21,2.51,3.72,4.4,4.89,5.66,3.51,14.13,4.06,20.44,2.17,3.68-1.1,7.23-3.46,8.81-7.06ZM83.27,98.2c.16,2.1,2.54,5.78-.84,6.25-4.61-.23-9.76.43-14.31.04-3.65-.31-1.21-4.08-1.31-6.3l-15,7.02,21.96,9.14,1.61.45,22.97-9.59-15.07-7.02ZM48.15,108.15v3.07l24.88,10.39v-2.85s.15-.11.15-.21l-25.02-10.4ZM102.15,108.15l-25.02,10.46v3l25.02-10.61v-2.85Z"/>
  <path d="M37.17,70.68v2.49c1.89.14,4.19-.27,6.01.21,1.58.41,2.04,2.84.65,3.74-.12.08-.97.44-1.03.44h-5.49c.06,1.24-.03,2.45-.29,3.66h22.54l-5.49-10.24c-.6-2.03,1.98-3.55,3.44-1.98l6.36,11.49c1.43,5.44-3.02,10.72-7.4,13.38-8.98,5.44-23.01,4.96-31.5-1.26-3.82-2.8-6.9-7.7-5.44-12.56l4.16-7.1c1.52-1.4,3.84.23,3.3,2.13l-3.44,6.14h9.51c.04-.11-.15-.17-.15-.22v-3.44h-2.41c-.09,0-.77-.45-.89-.58-.93-.98-.83-2.6.3-3.37.65-.45,2.2-.39,3-.29v-2.63h-2.27s-.61-.26-.71-.31c-1.12-.67-1.23-2.24-.51-3.25.14-.2.77-.68.93-.68h2.56c.17-3.18-.23-6.58,0-9.73.09-1.19.11-2.29,1.53-2.42,2.47-.23,6.72-.16,9.23,0,5.85.37,10.6,4.61,8.74,10.8-2.02,6.72-9.75,5.53-15.26,5.6ZM37.17,66.44c2.57-.69,8.44.84,10.32-1.17,1.26-1.34,1.49-4.16,0-5.42-.7-.6-2.76-1.32-3.66-1.32h-6.66v7.9ZM59.27,85.32H23.85c4.27,6.97,14.38,9.04,21.98,7.86,5.17-.8,10.79-3.11,13.43-7.86Z"/>
</svg>