<?xml version="1.0" encoding="UTF-8"?>
<svg id="_Слой_1" data-name="Слой 1" xmlns="http://www.w3.org/2000/svg" viewBox="0 0 150 150">
  <path d="M42,100.24l17.41-9.88.33-5.67c.12-.72.62-1.18,1.15-1.63l17.01-9.92,1.55-.39c.37.75-.04,1.45.02,2.25.05.75.5,1.25.56,1.96l-13.94,8.21-.02.3,15.55,9.04,16.43-9.34-11.79-7.02c-.14-.17-.02-.25.07-.38.17-.24,2.9-2,3.27-2.15.14-.06.27-.14.43-.09,3.67,2.21,7.52,4.16,11.18,6.39.63.38,1.76.94,2.17,1.49.96,1.27.26,3.6.58,5.12,2.89,1.95,6.25,3.43,9.13,5.35.68.45,1.52.84,1.63,1.74.14,1.15.12,3.95,0,5.13-.06.63-.29,1.16-.84,1.5l-40.43,23.81h-1.33c-11.15-6.72-22.4-13.29-33.55-20.01-2.42-1.46-5.07-2.9-7.41-4.45-1.18-.79-1.76-.9-1.91-2.48-.12-1.25-.03-3.56.15-4.82.13-.88,1.07-1.31,1.76-1.75,2.08-1.36,4.39-2.38,6.41-3.84.04-.34-.13-.65-.14-.99-.23-7.82-.02-15.76.16-23.56.05-2.34-.46-5.21.66-7.24s5.32-8.13,6.87-9.37l31.38-17.79c1.19-.78,2.07-.41,3.23.15,1.84.88,5.92,3.07,7.45,4.26.39.3.77.68.85,1.2l.03,19.13-2.92,4.1c-1.04.29-1.37-.4-1.46-1.32l-.03-19.88-5.61-3.26-29.34,16.49,2.13,4.67c.33,1.86-.16,2.36-1.56,3.29-2.31,1.54-4.91,2.91-7.3,4.33v37.32ZM43.46,57.07c.13.12,2.45-1.33,2.72-1.6l-.52-1.32-.29.22-1.91,2.7ZM79.9,101.56v-3.15l-15.95-9.44v3.29l15.95,9.29ZM99.51,89.12c-.85.34-1.65.84-2.44,1.29-4.49,2.55-8.93,5.21-13.37,7.85v3.15l15.8-9.15v-3.15ZM103.9,93.51v6.29l5.42-3.15-5.42-3.15ZM37.46,97.17v-3.37c-.37.32-2.74,1.38-2.63,1.83.24.25,2.52,1.66,2.63,1.54ZM59.56,95.41l-12.35,7.04-.1.35,25.46,15.08,7.17-4.25-18.87-10.99c-.48-.21-1.33-1.09-1.33-1.6v-5.63ZM79.9,109.02v-2.85l-15.77-9.26-.33-.03.08,2.63,16.02,9.51ZM99.51,99.66v-2.78l-15.8,9.07v2.93l15.8-9.22Z"/>
  <path d="M108.4,32.38c1-.13,1.77.06,2.67.47.83.38,3.72,2.36,4.32,3,1.26,1.37,1.64,3.64.78,5.32l-20.9,28.42c-3.23,2.11-6.88,5.09-10.3,6.83-.2.1-.48.29-.68.35-1.32.35-2.85-1.14-2.75-2.45l3.6-12.36,20.38-27.92c.71-.85,1.78-1.5,2.89-1.65ZM106.68,39.95l3.28,2.34c.34-.51,2.38-2.81,2.26-3.26l-3.11-2.29-2.43,3.21ZM104.13,43.47l-13.68,18.53c-.08.44,2.77,1.77,3.16,2.23l13.6-18.27v-.3s-3.08-2.19-3.08-2.19ZM87.37,69.66l3.22-2.12c.07-.34-1.86-1.34-2.12-1.68l-1.1,3.8Z"/>
  <path d="M77.23,59.16c1.97-.42,3.25,1.89,2.16,3.47l-27.62,15.7c-2.02.64-3.8-2.24-2-3.61l27.46-15.56Z"/>
  <path d="M63.9,62.58c-.83.82-1.86.73-2.81.2-.69-.39-4.43-2.92-4.83-3.36-.74-.82-.63-2.33.17-3.06,1.76-1.61,3.44.62,4.95,1.45.13.07.22.22.38.07l6.37-11.04c1.6-2.04,4.3-.3,3.65,2.04l-7.88,13.7Z"/>
  <path d="M69.47,72.33c1.85-.45,3.51,1.63,1.79,2.96-3.63,2.46-8.13,4.29-11.68,6.75-.9.63-1.23,1.35-2.01,1.94-.93.7-4.05,2.49-5.11,2.94-2.54,1.06-4.41-1.68-2.68-3.27l19.7-11.32Z"/>
</svg>