<?xml version="1.0" encoding="UTF-8"?>
<svg id="_Слой_1" data-name="Слой 1" xmlns="http://www.w3.org/2000/svg" viewBox="0 0 150 150">
  <path d="M79.75,62.49l-.15-25.9c-12.95,3-25.91,5.98-38.93,8.7-1.04.3-1.62,1.16-1.75,2.2.15,7.07-.13,14.17-.15,21.21-.02,7.9.25,15.77,0,23.64l3.52-1.12.14-10.22c.07-.66.35-1.21.89-1.6,8.8-2.56,17.5-5.63,26.33-8.06,1.42-.39,2.81-.96,4.32-.81,4.6,2.02,8.91,4.79,13.39,7.1.36.19.77.44,1.17.51-10.56-9.19-8.25-27.97,4.98-33.43,14.41-5.95,27.27,7.74,23.75,22.14-2.25,9.2-11.47,16.41-21.12,14.51.63.6,1.49,1.04,2.24,1.49,4.83,2.84,9.92,5.32,14.59,8.39.3.38.4.84.44,1.31.18,2.03.23,6.82,0,8.79-.13,1.09-.81,1.29-1.66,1.71-10.31,5-21.16,9.02-31.46,14.05-2.3.87-3.77,1.08-5.94-.26l-29.15-22.23c-.51-.17-4.76,1.38-5.7,1.61-1.16.29-1.8.63-2.97.05-.99-.49-1.58-1.57-1.57-2.67v-46.11c.21-2.41,1.27-4.35,3.38-5.55,13.66-3.54,27.63-6.06,41.37-9.41,1.88-.32,3.74.92,3.97,2.83.55,4.55-.38,10.11.02,14.77-.45,1.26-1.24,2.39-1.78,3.63-1.2,2.74-1.95,5.75-2.17,8.73ZM100.36,47.59c-14.33.1-19.67,21.02-7.24,28.09,9.67,5.5,19.83-3.04,20.15-13.12.23-7.39-5-15.02-12.9-14.97ZM105.07,91.76l-31.7-17.27-25.38,7.46c6.83,4.96,13.69,9.89,20.59,14.75,2.89,2.04,5.75,4.17,8.78,5.99l27.71-10.94ZM75.66,112.24c-.07-1.28.07-2.59,0-3.88-.03-.5-.13-2.01-.35-2.28l-29.06-20.91.15,5.04.36.52,28.34,21.27.57.23ZM109.61,94.24l-30.29,12v6.44l30.29-12.88v-5.56Z"/>
  <path d="M63.81,50.63l.3-.09,2.91-4.52c.59-.52,1.38-.7,2.11-.34.58.29,2.43,1.67,2.39,2.37-.03.46-1.25,2.12-1.59,2.63-1.75,2.6-3.78,5.01-5.65,7.52-.24,2.79.21,5.85-.03,8.61-.1,1.21-.52,2.12-1.73,2.51-4.07.74-8.58,2.62-12.61,3.2-1.78.25-2.63-.18-2.79-2.05-.32-3.77.04-8.48.16-12.29.04-1.29-.16-2.89,0-4.11.11-.89.91-1.67,1.73-1.93,3.93-.59,8.37-2.59,12.27-2.95,1.25-.12,2.34,0,2.54,1.45ZM50.78,55.02v13.76l10.24-2.49v-3.8l-1.91,2.41c-1.35.84-2.83-.86-3.8-1.75-1.28-1.17-4.15-3.44-1.97-5.05,1.73-1.28,2.74,1.07,3.95,1.91.12.09.15.2.37.14l4.68-6.96-.69-.62c-3.63.64-7.18,1.96-10.86,2.46Z"/>
  <path d="M84.44,90c.07-.34-.05-.23-.19-.33-3.45-2.22-7.12-4.16-10.54-6.44l-8.15,1.94,6.22,4.25c.57,0,1.48-3.08,3.18-2.76,1.09.2,1.47,1.17,1.21,2.17-.13.49-1.74,2.98-2.13,3.43-.99,1.14-2.16,1.05-3.41.34-2.59-1.47-7.32-4.63-9.6-6.5-1.6-1.31-1.41-2.41.49-3.14,2.72-1.04,7.73-2.38,10.61-2.99,1.77-.38,2.37-.02,3.9.78,4.19,2.17,8.22,5.28,12.47,7.43,2.64,2.18.86,3.2-1.41,4.12-2.76,1.12-7.22,2.91-10.01,3.59-1.4.34-2.44-.33-2.13-1.84.21-1.05,1.78-1.37,2.67-1.72,2.23-.86,4.54-1.57,6.81-2.34Z"/>
  <path d="M100.54,59.85l5.36-5.54c1.5-.9,3.1.72,2.1,2.25-1.23,1.88-4.35,3.99-5.42,5.85-.46.79-.18,1.84-1.09,2.71-2.47,2.38-6.41-.49-5.01-3.55.17-.38.63-.74.69-1.07.1-.51.13-1.98.16-2.62.08-1.86-.26-4.41,0-6.14.17-1.14,1.6-1.62,2.54-1.09.19.11.68.81.68.93v8.27Z"/>
  <path d="M99.76,72.18c2.44-.55,2.53,3.78.3,3.45-1.61-.23-1.74-3.13-.3-3.45Z"/>
  <path d="M89.23,62.08c2.11-.35,2.36,2.96-.04,2.97-2.06,0-1.63-2.69.04-2.97Z"/>
</svg>