<?xml version="1.0" encoding="UTF-8"?>
<svg id="_Слой_1" data-name="Слой 1" xmlns="http://www.w3.org/2000/svg" viewBox="0 0 150 150">
  <path d="M92.66,51.69v4.05s4.79,2.74,4.79,2.74c.49.38,1.07,1.13,1.17,1.76.19,1.24.18,6.77-.03,8-.23,1.34-1.65,1.79-2.58,2.55l-.1,3.56,25.18,14.77c.27.32.46.67.51,1.1.35,2.89-.24,6.51-.04,9.48l-.47.84c-14.06,8.58-28.34,16.9-42.6,25.16l-1.28-.02-32.97-19.42c-.27-.32-.46-.67-.51-1.1-.33-2.77.2-6.3.07-9.15.37-1.41,4.05-2.79,5.2-3.73l-17.86-10.53c-1.85-1.58-.65-4.9-.24-6.98.44-2.27.94-5.32,1.61-7.47.49-1.56,1.4-1.91,2.69-2.72,3.16-1.99,6.53-3.68,9.7-5.67l.27-.32c1.75-6.97,2.59-14.34,4.32-21.29.34-1.35.59-2.24,1.49-3.34,1.56-1.9,8.72-6.17,11.14-6.42,1.78-.19,3.42.05,5.03.79l15.32,8.82c3.08-1.86,5.82-2.73,9.02-.53,4.62,3.18,7.59,12.11,1.16,15.08ZM79.02,39.51c.06-.08-.16-.21-.24-.27-2.47-1.66-5.79-3.38-8.44-4.88-1.72-.98-4.88-3.13-6.75-3.2-1.98-.08-3.64,1.08-5.2,2.13l15.62,8.98,5.01-2.76ZM54.69,36.03c-.83.07-1.45.85-1.59,1.63l-4.95,24.9c.25,2.46,1.5,4.95,3.44,6.51,2.05,1.65,4.62,2.22,5.62-.81,1.27-7.35,3.36-14.81,4.48-22.16.31-2.07.25-3.16-.64-5.08-.96-2.09-3.86-5.21-6.36-4.99ZM83.41,53.27l8.41-5.13c.18-.19.44-.37.58-.59,1.75-2.68-2.19-10.23-6.02-8.36l-8.24,4.86c2.07,1.37,3.85,3.03,4.75,5.41.09.24.51,1.55.51,1.68v2.12ZM71.27,44.93l-6.44-3.66c.86,1.72.54,3.7.51,5.56l4.69,2.78c.3.04.19-.01.22-.22.06-.46-.05-.99,0-1.46.13-1.1.51-2.03,1.02-3ZM74.88,46.86c-2.16.5-1.1,4.34-.33,5.68,1.74,3.02,6,3.87,5.48-.65-.25-2.15-2.67-5.6-5.15-5.03ZM61.03,67.76c1.05-.9,3.03-1.45,3.88-2.48.57-.7.7-1.62.9-2.46.83-3.38,1.26-6.93,2.06-10.33l-3.26-1.99-3.58,17.27ZM89.12,59.05c.25-1.5-.18-3.63,0-5.2l-8.79,5.35c.94,2.64,7.08,2.6,8.42.64.09-.13.35-.67.37-.8ZM71.85,64.24v-2.41c0-1.01,3.47-2.72,4.35-3.26.11-.07.25.04.19-.25-1.25-.59-2.34-1.43-3.3-2.41-.65-.68-.86-1.49-1.97-1.76l-1.74,8.69,2.47,1.41ZM94.1,60.44l-1.75-.88c-.12,1.03-.65,1.92-1.17,2.78l2.84-1.6.09-.3ZM77.83,61.78l-.52.09-1.06.76,7.3,4.18,4.11-2.35c-.81.06-1.59.33-2.41.37-2.66.15-5.96-.69-7.42-3.06ZM44.78,63.22l-8.92,5.34,18.7,10.86c.82.24,1.33.17,2.12-.14l15.19-8.84-.08-2.1-3.44-1.9c-.07.41-.34.78-.59,1.09-1.16,1.44-7.55,5.06-9.46,5.91-6.55,2.9-12.95-4.06-13.52-10.22ZM95.12,64.1l-9.51,5.78v2.85l9.51-5.78v-2.85ZM82.1,73.17v-3l-6.88-4.02v2.63l6.88,4.39ZM34.98,72.44l-1.29,6.26.18.48,18.75,10.96c.1,0,.98-.51,1.02-.58.16-.26.15-5.47.08-6.08-.02-.16,0-.32-.16-.43l-18.15-10.53-.43-.08ZM57.07,87.51l18.55-10.9c-.31-.68-.43-1.47-.53-2.22-.05-.39.16-1.55-.36-1.5l-17.66,10.23v4.39ZM78.59,74.93c2.62,8.29,13.17,6.11,13.75-2.05-2.49,1.22-4.84,3.1-7.27,4.36-.98.5-1.4.69-2.48.2-.46-.21-3.83-2.68-4-2.51ZM117.66,91.46l-.39-.56-22.49-13.04-1.99,2.91,16.53,9.45c1.13.75,1.26,2.22.21,3.11s-3.5,2.12-4.84,2.92c-7.79,4.7-15.98,9.76-23.95,14.1-1.02.56-1.89,1.27-3.07.53l-20.87-12.2c-.92-.8-.76-2.3.24-2.97l22.73-13.2c.05-.2-.03-.24-.14-.37-.6-.69-1.84-1.31-2.21-2.25l-29.54,17.33,29.7,17.27c.49.16.99.09,1.42-.2l38.68-22.86ZM104.93,92.05l-.24-.41-15.05-8.75c-1.66.82-3.42,1.07-5.26.98l-22.61,13.24-.15.36,17.19,9.9,26.12-15.32ZM118.24,95.27l-38.49,22.76v2.85l5.37-3.05,33.12-19.49v-3.07ZM76.24,121.02v-3l-28.98-16.9v3.07l28.98,16.83Z"/>
  <path d="M84.41,85.64c.39-.03.8.09,1.16.23,3.16,1.3,6.51,4.25,9.75,5.61,1.1.81,1.33,2.05.29,3.03l-11.99,7.04c-.8.13-1.11-.08-1.77-.4-3.15-1.54-6.23-3.95-9.4-5.52-1.23-.8-1.22-2.42.06-3.14,3.61-1.72,7.43-5,11-6.56.26-.11.62-.27.9-.29ZM76.83,94.1l6.49,3.63,7.56-4.58-6.34-3.7-7.71,4.65Z"/>
  <path d="M56.3,40.42c2.1-.46,3.84,3.78,1.65,4.3s-3.69-3.86-1.65-4.3Z"/>
  <path d="M54.25,65.66c-1.76,1.98-4.51-2.69-2.5-3.74,1.82-.95,3.63,2.46,2.5,3.74Z"/>
</svg>