<?xml version="1.0" encoding="UTF-8"?>
<svg id="_Слой_1" data-name="Слой 1" xmlns="http://www.w3.org/2000/svg" viewBox="0 0 150 150">
  <path d="M79.02,65.27c.17.19,4.04-2.04,4.58-2.23,1-.34,1.42-.17,2.35.2,4.01,1.59,8.91,4.32,12.88,6.29,1.03.52,3.71,1.64,4.42,2.31.34.32.61.77.66,1.25l.07,12.08,18.76,9.19c.67.39.87,1.13.93,1.85.2,2.34.22,7.06,0,9.37-.08.79-.34,1.46-1.07,1.86l-48.94,24.38-1.27.02-49.16-24.6c-.59-.38-.9-.96-.98-1.66-.25-2.29-.18-6.87,0-9.23.06-.88.22-1.55.98-2.09l16.42-8.24.02-25.81c.07-.63.47-1.16.98-1.51l18.16-8.62c.64-.1,1.31-.07,1.89.23,5.35,3.07,11.91,5.19,17.15,8.31.35.21,1.19.9,1.19,1.3v5.34ZM72.29,60.15l-12.95-6.14-13.1,6.35,13.1,6.21c3.25-1.58,6.54-3.1,9.78-4.69.27-.13,3.29-1.57,3.17-1.73ZM75.22,63.22l-14.02,6.75.07,2.33,4.01,1.89c-.05-1.04.21-2.15,1.12-2.75l8.83-4.27v-3.95ZM43.46,63.51v15.37l13.76-6.66c.33-.37.05-1.52.16-2.06l-13.91-6.65ZM97.32,73.03l-12.92-6.12-12.11,5.83c.25.34.82.4,1.16.67.93.71.73,1.83-.15,2.47l-2.33,1.26,3.57,1.61c1.58-.49,3.43-2.05,5.12-1.89,1.58.15,3.75,1.99,5.42,2.33,3.98-2,8.06-3.82,12.02-5.84.15-.08.28.08.21-.3ZM72,81.66l-12.66-6.09c-4.18,2.06-8.54,3.86-12.67,6.02-.17.09-.35,0-.29.29l12.78,6.19,12.64-6.08.19-.33ZM100.1,76.24l-13.61,6.44v14.05l13.61-6.66v-13.83ZM82.68,96.73v-14.27c-.69-.34-2.78-1.69-3.4-1.65-.11,0-.39.09-.41.21l.18,13.86,3.64,1.85ZM75.22,84.73l-14.05,6.59v13.39c0,.06-.38.26.07.22l13.98-6.73v-13.46ZM57.22,105.07v-13.54l-13.76-6.66c.05,4.51-.13,9.04.14,13.53l13.62,6.66ZM103.9,89.41v2.41c0,.27-.88,1.28-1.21,1.42l-17.23,8.24c-.3.04-.66.2-.95.19-1-.01-5.26-2.66-5.48-2.46-.04,1.03-.74,1.68-1.56,2.17-5.49,2.33-10.79,5.55-16.24,7.91-.8.35-1.7.87-2.58.72-5.56-2.79-11.6-5.3-17.04-8.28-.62-.34-1.95-1.21-1.95-2v-9.44l-11.12,5.56.15.21,44.26,21.83,44.12-21.75-13.17-6.73ZM119.85,99.07l-45.07,22.1v5.85l45.07-22.54v-5.41ZM70.98,121.17l-44.78-21.95v5.2l44.78,22.61v-5.85Z"/>
  <path d="M70.1,36v2.49h8.56c.18,0,.94.6,1.1.81.74.94.56,2.13-.37,2.85-.1.08-.69.44-.73.44h-8.56v3.73c0,.13-.51.69-.66.8-1.01.78-2.45.55-3.12-.54s-.17-2.79-.32-4h-2.71c-.13,0-.95-.64-1.08-.83-.49-.7-.46-1.97.12-2.61.14-.16.95-.66,1.1-.66h2.56v-2.49h-2.56c-.21,0-.9-.48-1.07-.68-.62-.69-.67-1.95-.09-2.68.16-.2.97-.74,1.16-.74h2.56v-11.05c.09-.78.69-1.58,1.53-1.54,6.35.49,15.76-2.23,18.59,5.57,1.9,5.24-2.11,11.12-7.75,11.12h-8.27ZM70.1,31.9h7.68c.32,0,1.47-.36,1.83-.51,3.28-1.37,3.79-5.35.63-7.21-.34-.2-1.56-.76-1.87-.76h-8.27v8.49Z"/>
  <path d="M96.44,50.49h3.59c.05,0,.7.3.8.37.73.51.84,1.57.42,2.32l-7.22,9.02c-.65.84-2.13.84-2.79,0l-7.27-9.26c-.57-.77.53-2.45,1.28-2.45h3.59v-7.83c0-.45.84-1.22,1.31-1.33.66-.16,4.35-.16,4.99,0,.52.13,1.31.95,1.31,1.47v7.68Z"/>
</svg>