<?xml version="1.0" encoding="UTF-8"?>
<svg id="_Слой_1" data-name="Слой 1" xmlns="http://www.w3.org/2000/svg" viewBox="0 0 150 150">
  <path d="M110.78,63.37l.09.3,9.18,5.58c1.08.64,1.08,2.13.23,2.96-.65.64-3.31,2.03-4.28,2.6s-1.94,1.09-2.94,1.57l-.09.3c1.9.97,3.68,2.23,5.52,3.34,2.65,1.6,5.57,3.06,8.14,4.74,1.16.76,2.02,1.27,2.16,2.82.24,2.73.25,8.27,0,10.99-.06.68-.36,1.75-.89,2.18-13.03,7.57-25.88,15.48-38.97,22.94-1.89,1.07-6.75,4.12-8.58,4.45-.78.14-1.7-.45-2.39-.84-15.8-8.85-31.24-18.57-46.83-27.8-1.99-1.18-8.29-4.27-9.38-5.84-.19-.26-.3-.58-.45-.86.11-3.74-.39-7.95-.07-11.64.13-1.58.81-1.89,2.01-2.67,2.48-1.63,5.29-3.04,7.84-4.6,2.14-1.31,4.23-2.72,6.4-4,.06-.22-.14-.24-.24-.34-.52-.52-1.68-1.35-2.31-1.78-2.05-1.39-5.33-2.72-7.09-4.18-.97-.8-1.08-2.74-.08-3.58,3.71-2.12,7.5-4.13,11.05-6.51,0-.44-6.38-3.86-7.25-4.46-1.37-.95-2.04-1.21-1.39-3.01.31-.87.55-1.01,1.28-1.5,4.17-2.79,9.6-5.35,14.05-7.91,7.74-4.45,15.39-9.06,23.17-13.43.81-.2,2.7.96,3.46,1.38,14.41,7.84,28.64,16.78,42.83,25.07,1.65.96,6.16,2.97,7.01,4.41.7,1.2.44,2-.46,2.96-3.52,2.19-7.01,4.43-10.69,6.36ZM115.76,55.32l-46.75-27.21-32.42,18.8,44.24,25.86,3.25,2.29,31.68-19.73ZM114.15,70.83l-7.95-4.67-20.39,12.83c-1.67.78-2.63.54-4.19-.3-3.61-1.93-7.2-4.57-10.74-6.67-5.4-3.21-10.92-6.22-16.33-9.42-3.72-2.2-7.46-4.42-11.07-6.79l-10.39,5.95,58.46,34.93,1.36-1.23.19-9.61c.14-1.17.61-2.14,1.37-3.02,5.49-3.31,10.89-6.83,16.42-10.06,1.03-.6,2.08-1.16,3.17-1.63l.09-.3ZM102.59,83.41c2.47,1.23,4.75,2.89,7.03,4.46.42.34.61,1.57.36,1.98-.13.22-3.77,2.5-4.33,2.84-4.07,2.55-8.79,5.54-12.97,7.81-2.46,1.34-2.76.26-4.78-.87-7.58-4.28-14.98-8.93-22.44-13.41s-15.71-9.1-23.24-14.18l-14.85,8.88c-.06.09.17.22.24.27,4.01,2.81,9.01,5.28,13.26,7.81,11.96,7.12,23.94,14.83,36.06,21.6.7.39,3.01,1.77,3.63,1.8.18,0,.35-.01.51-.08l41.7-24.52-14.16-8.32-.47.05c-1.22.99-2.74,1.54-4.04,2.41-.24.16-1.75,1.18-1.53,1.47ZM78.29,122.49l.15-5.92c-14.96-8.96-29.93-17.92-44.98-26.74-2.68-1.57-5.51-2.95-8-4.8l-.12,6.27,52.95,31.19ZM103.02,88.83c-1.55-.74-2.88-1.98-4.48-2.61-.46-.18-.67-.4-1.13-.04l-.39,6.74,4.58-2.8,1.41-1.29ZM82.39,122.49l41.85-24.51.29-6.37-41.64,24.72c-.13.1-.18.22-.21.38-.32,1.66.35,4.02-.3,5.78Z"/>
</svg>