<svg width="48" height="48" viewBox="0 0 48 48" fill="none" xmlns="http://www.w3.org/2000/svg">
<path d="M38.756 29.9371C37.1333 29.9371 35.7668 29.3694 34.6565 28.2341C33.5458 27.0991 32.9905 25.7204 32.9905 24.0981C32.9905 22.4754 33.5458 21.0986 34.6565 19.9676C35.7668 18.8363 37.1333 18.2706 38.756 18.2706C40.345 18.2706 41.7051 18.8363 42.8365 19.9676C43.9675 21.0986 44.533 22.4754 44.533 24.0981C44.533 25.7204 43.9675 27.0991 42.8365 28.2341C41.7051 29.3694 40.345 29.9371 38.756 29.9371ZM20.8275 25.8631H5.18297C4.69397 25.8631 4.27747 25.6933 3.93347 25.3536C3.5898 25.0136 3.41797 24.5951 3.41797 24.0981C3.41797 23.6088 3.5898 23.1923 3.93347 22.8486C4.27747 22.5046 4.69397 22.3326 5.18297 22.3326H20.8275L16.5125 17.9796C16.1725 17.6316 16.0025 17.2298 16.0025 16.7741C16.0025 16.3181 16.1685 15.9203 16.5005 15.5806C16.8481 15.2326 17.2623 15.0586 17.743 15.0586C18.2233 15.0586 18.6335 15.2326 18.9735 15.5806L26.2355 22.9046C26.5751 23.2523 26.745 23.6521 26.745 24.1041C26.745 24.5558 26.5751 24.9516 26.2355 25.2916L18.9235 32.6771C18.5755 33.0251 18.1716 33.1991 17.712 33.1991C17.252 33.1991 16.8521 33.0251 16.5125 32.6771C16.2058 32.3374 16.0505 31.9416 16.0465 31.4896C16.0425 31.0379 16.1938 30.6381 16.5005 30.2901L20.8275 25.8631Z" fill="black"/>
</svg>
