<svg width="48" height="48" viewBox="0 0 48 48" fill="none" xmlns="http://www.w3.org/2000/svg">
<path d="M5.40467 38.2995C4.92367 38.2995 4.51951 38.135 4.19217 37.806C3.86484 37.477 3.70117 37.0708 3.70117 36.5875C3.70117 36.1041 3.86484 35.7008 4.19217 35.3775C4.51951 35.0545 4.92367 34.893 5.40467 34.893H16.1112V23.9885C16.1112 23.5078 16.2748 23.1038 16.6022 22.7765C16.9295 22.4491 17.3335 22.2855 17.8142 22.2855H28.4707V11.405C28.4707 10.924 28.6343 10.5178 28.9617 10.1865C29.289 9.85512 29.6932 9.68945 30.1742 9.68945H42.5957C43.0767 9.68945 43.4828 9.85595 43.8142 10.189C44.1455 10.522 44.3112 10.9301 44.3112 11.4135C44.3112 11.8968 44.1455 12.3001 43.8142 12.6235C43.4828 12.9465 43.0767 13.108 42.5957 13.108H31.8892V23.9885C31.8892 24.4691 31.7235 24.8733 31.3922 25.201C31.0608 25.5283 30.6548 25.692 30.1742 25.692H19.5177V36.596C19.5177 37.077 19.354 37.4811 19.0267 37.8085C18.6993 38.1358 18.2952 38.2995 17.8142 38.2995H5.40467Z" fill="black"/>
</svg>
