<svg width="48" height="48" viewBox="0 0 48 48" fill="none" xmlns="http://www.w3.org/2000/svg">
<path d="M25.9287 30.1504H32.5467C33.467 30.1504 34.2547 29.8216 34.9097 29.1639C35.565 28.5066 35.8927 27.7163 35.8927 26.7929V21.1959C35.8927 20.2759 35.565 19.4884 34.9097 18.8334C34.2547 18.1781 33.467 17.8505 32.5467 17.8505H25.9287V30.1504ZM28.4287 27.6504V20.3504H32.5467C32.7707 20.3504 32.9677 20.4378 33.1377 20.6124C33.3077 20.7871 33.3927 20.9856 33.3927 21.208V26.8049C33.3927 27.0286 33.3077 27.2254 33.1377 27.3954C32.9677 27.5654 32.7707 27.6504 32.5467 27.6504H28.4287ZM18.9287 30.0004C19.3953 30.0004 19.8453 29.7838 20.2787 29.3504C20.712 28.9171 20.9287 28.4671 20.9287 28.0004V26.0005C20.9287 25.4338 20.737 24.9588 20.3537 24.5754C19.9703 24.1921 19.4953 24.0005 18.9287 24.0005C19.4953 24.0005 19.9703 23.8088 20.3537 23.4254C20.737 23.0421 20.9287 22.5671 20.9287 22.0005V20.0005C20.9287 19.5338 20.712 19.0838 20.2787 18.6504C19.8453 18.2171 19.3953 18.0005 18.9287 18.0005H13.6787C13.3173 18.0005 13.0187 18.1191 12.7827 18.3565C12.5467 18.5934 12.4287 18.8934 12.4287 19.2564C12.4287 19.6191 12.5467 19.9171 12.7827 20.1504C13.0187 20.3838 13.3173 20.5005 13.6787 20.5005H18.4287V22.7504H15.9787C15.6173 22.7504 15.3187 22.8691 15.0827 23.1064C14.8467 23.3434 14.7287 23.6434 14.7287 24.0064C14.7287 24.3691 14.8467 24.6671 15.0827 24.9004C15.3187 25.1338 15.6173 25.2505 15.9787 25.2505H18.4287V27.5004H13.6787C13.3173 27.5004 13.0187 27.6191 12.7827 27.8564C12.5467 28.0934 12.4287 28.3934 12.4287 28.7564C12.4287 29.1191 12.5467 29.4171 12.7827 29.6504C13.0187 29.8838 13.3173 30.0004 13.6787 30.0004H18.9287ZM7.10767 40.2994C6.18767 40.2994 5.39001 39.9616 4.71467 39.2859C4.03901 38.6106 3.70117 37.8129 3.70117 36.8929V11.108C3.70117 10.1846 4.03901 9.38412 4.71467 8.70645C5.39001 8.02845 6.18767 7.68945 7.10767 7.68945H40.8927C41.816 7.68945 42.6165 8.02845 43.2942 8.70645C43.9722 9.38412 44.3112 10.1846 44.3112 11.108V36.8929C44.3112 37.8129 43.9722 38.6106 43.2942 39.2859C42.6165 39.9616 41.816 40.2994 40.8927 40.2994H7.10767ZM7.10767 36.8929H40.8927V11.108H7.10767V36.8929Z" fill="black"/>
</svg>
